<svg width="1363" height="167" viewBox="0 0 1363 167" fill="none" xmlns="http://www.w3.org/2000/svg">
<rect width="1363" height="167" rx="15" fill="#F0F0F0"/>
<path d="M0 15C0 6.71573 6.71573 0 15 0H37V167H15C6.71573 167 0 160.284 0 152V15Z" fill="#424241"/>
<path d="M100.906 50.9219L93.3945 48.2383V45.0859L103.602 49.375V51.6367L100.906 50.9219ZM93.3945 53.1719L100.918 50.4297L103.602 49.7852V52.0352L93.3945 56.3242V53.1719ZM118.543 51.918H114.195V49.1758H118.543C119.215 49.1758 119.762 49.0664 120.184 48.8477C120.605 48.6211 120.914 48.3086 121.109 47.9102C121.305 47.5117 121.402 47.0625 121.402 46.5625C121.402 46.0547 121.305 45.582 121.109 45.1445C120.914 44.707 120.605 44.3555 120.184 44.0898C119.762 43.8242 119.215 43.6914 118.543 43.6914H115.414V58H111.898V40.9375H118.543C119.879 40.9375 121.023 41.1797 121.977 41.6641C122.938 42.1406 123.672 42.8008 124.18 43.6445C124.688 44.4883 124.941 45.4531 124.941 46.5391C124.941 47.6406 124.688 48.5938 124.18 49.3984C123.672 50.2031 122.938 50.8242 121.977 51.2617C121.023 51.6992 119.879 51.918 118.543 51.918ZM130.719 40V58H127.332V40H130.719ZM140.352 55.1406V49.4922C140.352 49.0859 140.285 48.7383 140.152 48.4492C140.02 48.1523 139.812 47.9219 139.531 47.7578C139.258 47.5938 138.902 47.5117 138.465 47.5117C138.09 47.5117 137.766 47.5781 137.492 47.7109C137.219 47.8359 137.008 48.0195 136.859 48.2617C136.711 48.4961 136.637 48.7734 136.637 49.0938H133.262C133.262 48.5547 133.387 48.043 133.637 47.5586C133.887 47.0742 134.25 46.6484 134.727 46.2812C135.203 45.9062 135.77 45.6133 136.426 45.4023C137.09 45.1914 137.832 45.0859 138.652 45.0859C139.637 45.0859 140.512 45.25 141.277 45.5781C142.043 45.9062 142.645 46.3984 143.082 47.0547C143.527 47.7109 143.75 48.5312 143.75 49.5156V54.9414C143.75 55.6367 143.793 56.207 143.879 56.6523C143.965 57.0898 144.09 57.4727 144.254 57.8008V58H140.844C140.68 57.6562 140.555 57.2266 140.469 56.7109C140.391 56.1875 140.352 55.6641 140.352 55.1406ZM140.797 50.2773L140.82 52.1875H138.934C138.488 52.1875 138.102 52.2383 137.773 52.3398C137.445 52.4414 137.176 52.5859 136.965 52.7734C136.754 52.9531 136.598 53.1641 136.496 53.4062C136.402 53.6484 136.355 53.9141 136.355 54.2031C136.355 54.4922 136.422 54.7539 136.555 54.9883C136.688 55.2148 136.879 55.3945 137.129 55.5273C137.379 55.6523 137.672 55.7148 138.008 55.7148C138.516 55.7148 138.957 55.6133 139.332 55.4102C139.707 55.207 139.996 54.957 140.199 54.6602C140.41 54.3633 140.52 54.082 140.527 53.8164L141.418 55.2461C141.293 55.5664 141.121 55.8984 140.902 56.2422C140.691 56.5859 140.422 56.9102 140.094 57.2148C139.766 57.5117 139.371 57.7578 138.91 57.9531C138.449 58.1406 137.902 58.2344 137.27 58.2344C136.465 58.2344 135.734 58.0742 135.078 57.7539C134.43 57.4258 133.914 56.9766 133.531 56.4062C133.156 55.8281 132.969 55.1719 132.969 54.4375C132.969 53.7734 133.094 53.1836 133.344 52.668C133.594 52.1523 133.961 51.7188 134.445 51.3672C134.938 51.0078 135.551 50.7383 136.285 50.5586C137.02 50.3711 137.871 50.2773 138.84 50.2773H140.797ZM149.656 48.0273V58H146.281V45.3203H149.445L149.656 48.0273ZM149.164 51.2148H148.25C148.25 50.2773 148.371 49.4336 148.613 48.6836C148.855 47.9258 149.195 47.2812 149.633 46.75C150.07 46.2109 150.59 45.8008 151.191 45.5195C151.801 45.2305 152.48 45.0859 153.23 45.0859C153.824 45.0859 154.367 45.1719 154.859 45.3438C155.352 45.5156 155.773 45.7891 156.125 46.1641C156.484 46.5391 156.758 47.0352 156.945 47.6523C157.141 48.2695 157.238 49.0234 157.238 49.9141V58H153.84V49.9023C153.84 49.3398 153.762 48.9023 153.605 48.5898C153.449 48.2773 153.219 48.0586 152.914 47.9336C152.617 47.8008 152.25 47.7344 151.812 47.7344C151.359 47.7344 150.965 47.8242 150.629 48.0039C150.301 48.1836 150.027 48.4336 149.809 48.7539C149.598 49.0664 149.438 49.4336 149.328 49.8555C149.219 50.2773 149.164 50.7305 149.164 51.2148ZM166.016 45.3203V47.7109H158.633V45.3203H166.016ZM160.461 42.1914H163.836V54.1797C163.836 54.5469 163.883 54.8281 163.977 55.0234C164.078 55.2188 164.227 55.3555 164.422 55.4336C164.617 55.5039 164.863 55.5391 165.16 55.5391C165.371 55.5391 165.559 55.5312 165.723 55.5156C165.895 55.4922 166.039 55.4688 166.156 55.4453L166.168 57.9297C165.879 58.0234 165.566 58.0977 165.23 58.1523C164.895 58.207 164.523 58.2344 164.117 58.2344C163.375 58.2344 162.727 58.1133 162.172 57.8711C161.625 57.6211 161.203 57.2227 160.906 56.6758C160.609 56.1289 160.461 55.4102 160.461 54.5195V42.1914ZM167.094 51.7891V51.543C167.094 50.6133 167.227 49.7578 167.492 48.9766C167.758 48.1875 168.145 47.5039 168.652 46.9258C169.16 46.3477 169.785 45.8984 170.527 45.5781C171.27 45.25 172.121 45.0859 173.082 45.0859C174.043 45.0859 174.898 45.25 175.648 45.5781C176.398 45.8984 177.027 46.3477 177.535 46.9258C178.051 47.5039 178.441 48.1875 178.707 48.9766C178.973 49.7578 179.105 50.6133 179.105 51.543V51.7891C179.105 52.7109 178.973 53.5664 178.707 54.3555C178.441 55.1367 178.051 55.8203 177.535 56.4062C177.027 56.9844 176.402 57.4336 175.66 57.7539C174.918 58.0742 174.066 58.2344 173.105 58.2344C172.145 58.2344 171.289 58.0742 170.539 57.7539C169.797 57.4336 169.168 56.9844 168.652 56.4062C168.145 55.8203 167.758 55.1367 167.492 54.3555C167.227 53.5664 167.094 52.7109 167.094 51.7891ZM170.469 51.543V51.7891C170.469 52.3203 170.516 52.8164 170.609 53.2773C170.703 53.7383 170.852 54.1445 171.055 54.4961C171.266 54.8398 171.539 55.1094 171.875 55.3047C172.211 55.5 172.621 55.5977 173.105 55.5977C173.574 55.5977 173.977 55.5 174.312 55.3047C174.648 55.1094 174.918 54.8398 175.121 54.4961C175.324 54.1445 175.473 53.7383 175.566 53.2773C175.668 52.8164 175.719 52.3203 175.719 51.7891V51.543C175.719 51.0273 175.668 50.543 175.566 50.0898C175.473 49.6289 175.32 49.2227 175.109 48.8711C174.906 48.5117 174.637 48.2305 174.301 48.0273C173.965 47.8242 173.559 47.7227 173.082 47.7227C172.605 47.7227 172.199 47.8242 171.863 48.0273C171.535 48.2305 171.266 48.5117 171.055 48.8711C170.852 49.2227 170.703 49.6289 170.609 50.0898C170.516 50.543 170.469 51.0273 170.469 51.543ZM180.641 51.7891V51.543C180.641 50.6133 180.773 49.7578 181.039 48.9766C181.305 48.1875 181.691 47.5039 182.199 46.9258C182.707 46.3477 183.332 45.8984 184.074 45.5781C184.816 45.25 185.668 45.0859 186.629 45.0859C187.59 45.0859 188.445 45.25 189.195 45.5781C189.945 45.8984 190.574 46.3477 191.082 46.9258C191.598 47.5039 191.988 48.1875 192.254 48.9766C192.52 49.7578 192.652 50.6133 192.652 51.543V51.7891C192.652 52.7109 192.52 53.5664 192.254 54.3555C191.988 55.1367 191.598 55.8203 191.082 56.4062C190.574 56.9844 189.949 57.4336 189.207 57.7539C188.465 58.0742 187.613 58.2344 186.652 58.2344C185.691 58.2344 184.836 58.0742 184.086 57.7539C183.344 57.4336 182.715 56.9844 182.199 56.4062C181.691 55.8203 181.305 55.1367 181.039 54.3555C180.773 53.5664 180.641 52.7109 180.641 51.7891ZM184.016 51.543V51.7891C184.016 52.3203 184.062 52.8164 184.156 53.2773C184.25 53.7383 184.398 54.1445 184.602 54.4961C184.812 54.8398 185.086 55.1094 185.422 55.3047C185.758 55.5 186.168 55.5977 186.652 55.5977C187.121 55.5977 187.523 55.5 187.859 55.3047C188.195 55.1094 188.465 54.8398 188.668 54.4961C188.871 54.1445 189.02 53.7383 189.113 53.2773C189.215 52.8164 189.266 52.3203 189.266 51.7891V51.543C189.266 51.0273 189.215 50.543 189.113 50.0898C189.02 49.6289 188.867 49.2227 188.656 48.8711C188.453 48.5117 188.184 48.2305 187.848 48.0273C187.512 47.8242 187.105 47.7227 186.629 47.7227C186.152 47.7227 185.746 47.8242 185.41 48.0273C185.082 48.2305 184.812 48.5117 184.602 48.8711C184.398 49.2227 184.25 49.6289 184.156 50.0898C184.062 50.543 184.016 51.0273 184.016 51.543ZM198.289 40V58H194.902V40H198.289Z" fill="#888888"/>
<path d="M109.93 86.0078V118H102.217V86.0078H109.93ZM119.554 86.0078V91.9624H92.813V86.0078H119.554ZM132.012 118.439C130.079 118.439 128.35 118.139 126.827 117.539C125.303 116.923 124.014 116.081 122.959 115.012C121.919 113.942 121.121 112.712 120.564 111.32C120.022 109.929 119.751 108.457 119.751 106.904V106.069C119.751 104.326 119.993 102.714 120.477 101.235C120.96 99.7407 121.678 98.437 122.63 97.3237C123.582 96.2104 124.776 95.3462 126.211 94.731C127.647 94.1011 129.317 93.7861 131.221 93.7861C132.906 93.7861 134.415 94.0571 135.748 94.5991C137.081 95.1411 138.208 95.9175 139.131 96.9282C140.069 97.939 140.779 99.1621 141.263 100.598C141.761 102.033 142.01 103.645 142.01 105.432V108.442H122.586V103.806H134.781V103.234C134.795 102.443 134.656 101.77 134.363 101.213C134.085 100.656 133.675 100.231 133.133 99.9385C132.591 99.6455 131.932 99.499 131.155 99.499C130.35 99.499 129.683 99.6748 129.156 100.026C128.643 100.378 128.24 100.861 127.947 101.477C127.669 102.077 127.471 102.773 127.354 103.564C127.237 104.355 127.178 105.19 127.178 106.069V106.904C127.178 107.783 127.295 108.581 127.53 109.299C127.779 110.017 128.13 110.632 128.584 111.145C129.053 111.643 129.61 112.031 130.254 112.309C130.914 112.587 131.661 112.727 132.496 112.727C133.506 112.727 134.502 112.536 135.484 112.155C136.465 111.774 137.308 111.145 138.011 110.266L141.373 114.265C140.889 114.953 140.201 115.62 139.307 116.264C138.428 116.909 137.374 117.436 136.143 117.846C134.913 118.242 133.536 118.439 132.012 118.439ZM155.062 112.727C155.75 112.727 156.336 112.602 156.819 112.353C157.317 112.089 157.691 111.723 157.94 111.254C158.204 110.771 158.328 110.192 158.313 109.519H165.279C165.293 111.306 164.854 112.873 163.96 114.221C163.082 115.554 161.88 116.594 160.357 117.341C158.848 118.073 157.142 118.439 155.237 118.439C153.377 118.439 151.751 118.139 150.359 117.539C148.968 116.923 147.803 116.074 146.866 114.99C145.943 113.891 145.247 112.609 144.778 111.145C144.324 109.68 144.097 108.09 144.097 106.376V105.871C144.097 104.157 144.324 102.568 144.778 101.103C145.247 99.6235 145.943 98.3418 146.866 97.2578C147.803 96.1592 148.96 95.3096 150.337 94.709C151.729 94.0938 153.348 93.7861 155.193 93.7861C157.171 93.7861 158.914 94.1597 160.423 94.9067C161.946 95.6538 163.14 96.7378 164.004 98.1587C164.869 99.5796 165.293 101.301 165.279 103.322H158.313C158.328 102.604 158.218 101.96 157.984 101.389C157.75 100.817 157.383 100.363 156.885 100.026C156.402 99.6748 155.779 99.499 155.018 99.499C154.256 99.499 153.641 99.6675 153.172 100.004C152.703 100.341 152.344 100.81 152.095 101.411C151.861 101.997 151.7 102.67 151.612 103.432C151.539 104.194 151.502 105.007 151.502 105.871V106.376C151.502 107.255 151.539 108.083 151.612 108.859C151.7 109.621 151.868 110.295 152.117 110.881C152.366 111.452 152.725 111.906 153.194 112.243C153.663 112.565 154.285 112.727 155.062 112.727ZM175.694 84.25V118H168.289V84.25H175.694ZM174.815 105.3L173.079 105.344C173.079 103.674 173.284 102.136 173.694 100.729C174.104 99.3232 174.69 98.1001 175.452 97.0601C176.214 96.02 177.129 95.2144 178.199 94.6431C179.268 94.0718 180.455 93.7861 181.758 93.7861C182.93 93.7861 184 93.9546 184.966 94.2915C185.948 94.6284 186.79 95.1704 187.493 95.9175C188.211 96.6646 188.76 97.6387 189.141 98.8398C189.537 100.041 189.734 101.506 189.734 103.234V118H182.286V103.19C182.286 102.224 182.146 101.477 181.868 100.949C181.604 100.407 181.224 100.034 180.726 99.8286C180.228 99.6089 179.62 99.499 178.902 99.499C178.038 99.499 177.334 99.6455 176.792 99.9385C176.25 100.231 175.833 100.642 175.54 101.169C175.262 101.682 175.071 102.29 174.969 102.993C174.866 103.696 174.815 104.465 174.815 105.3ZM221.88 109.497C221.88 108.999 221.807 108.552 221.661 108.156C221.514 107.746 221.243 107.365 220.848 107.014C220.452 106.662 219.881 106.311 219.134 105.959C218.401 105.593 217.435 105.212 216.233 104.816C214.827 104.348 213.472 103.82 212.168 103.234C210.865 102.634 209.7 101.938 208.675 101.147C207.649 100.341 206.836 99.4038 206.236 98.3345C205.635 97.2505 205.335 95.9907 205.335 94.5552C205.335 93.1782 205.643 91.9404 206.258 90.8418C206.873 89.7285 207.73 88.7837 208.829 88.0073C209.942 87.2163 211.246 86.6157 212.74 86.2056C214.234 85.7808 215.867 85.5684 217.64 85.5684C219.983 85.5684 222.049 85.9785 223.836 86.7988C225.638 87.6045 227.044 88.7544 228.055 90.2485C229.08 91.728 229.593 93.4785 229.593 95.5H221.924C221.924 94.6943 221.756 93.9839 221.419 93.3687C221.097 92.7534 220.606 92.27 219.947 91.9185C219.288 91.5669 218.46 91.3911 217.464 91.3911C216.497 91.3911 215.684 91.5376 215.025 91.8306C214.366 92.1235 213.868 92.519 213.531 93.0171C213.194 93.5005 213.025 94.0352 213.025 94.6211C213.025 95.1045 213.157 95.5439 213.421 95.9395C213.699 96.3203 214.087 96.6792 214.585 97.0161C215.098 97.353 215.713 97.6753 216.431 97.9829C217.164 98.2905 217.984 98.5908 218.892 98.8838C220.591 99.4258 222.1 100.034 223.418 100.708C224.751 101.367 225.872 102.121 226.78 102.971C227.703 103.806 228.399 104.758 228.868 105.827C229.351 106.896 229.593 108.105 229.593 109.453C229.593 110.888 229.314 112.163 228.758 113.276C228.201 114.389 227.403 115.334 226.363 116.11C225.323 116.872 224.078 117.451 222.627 117.846C221.177 118.242 219.559 118.439 217.771 118.439C216.131 118.439 214.512 118.234 212.916 117.824C211.333 117.399 209.898 116.755 208.609 115.891C207.32 115.012 206.287 113.891 205.511 112.529C204.749 111.152 204.368 109.519 204.368 107.629H212.103C212.103 108.566 212.227 109.357 212.476 110.002C212.725 110.646 213.091 111.167 213.575 111.562C214.058 111.943 214.651 112.221 215.354 112.397C216.058 112.558 216.863 112.639 217.771 112.639C218.753 112.639 219.544 112.5 220.145 112.221C220.745 111.928 221.185 111.547 221.463 111.079C221.741 110.595 221.88 110.068 221.88 109.497ZM245.743 94.2256V99.3672H231.417V94.2256H245.743ZM234.427 88.3149H241.832V110.244C241.832 110.874 241.905 111.364 242.051 111.716C242.198 112.053 242.447 112.294 242.798 112.441C243.165 112.573 243.648 112.639 244.249 112.639C244.673 112.639 245.025 112.631 245.303 112.617C245.582 112.587 245.845 112.551 246.094 112.507V117.802C245.464 118.007 244.805 118.161 244.117 118.264C243.428 118.381 242.696 118.439 241.919 118.439C240.337 118.439 238.982 118.19 237.854 117.692C236.741 117.194 235.892 116.411 235.306 115.341C234.72 114.272 234.427 112.88 234.427 111.167V88.3149ZM261.036 112.023V102.224C261.036 101.55 260.94 100.971 260.75 100.488C260.56 100.004 260.259 99.6309 259.849 99.3672C259.439 99.0889 258.89 98.9497 258.201 98.9497C257.645 98.9497 257.168 99.0449 256.773 99.2354C256.377 99.4258 256.077 99.7114 255.872 100.092C255.667 100.473 255.564 100.957 255.564 101.542H248.16C248.16 100.444 248.401 99.4258 248.885 98.4883C249.383 97.5361 250.086 96.7085 250.994 96.0054C251.917 95.3022 253.016 94.7603 254.29 94.3794C255.579 93.9839 257.015 93.7861 258.597 93.7861C260.486 93.7861 262.171 94.1011 263.65 94.731C265.145 95.3608 266.324 96.3057 267.188 97.5654C268.052 98.8105 268.484 100.378 268.484 102.268V112.001C268.484 113.554 268.572 114.733 268.748 115.539C268.924 116.33 269.173 117.026 269.495 117.626V118H262.068C261.717 117.268 261.453 116.374 261.277 115.319C261.116 114.25 261.036 113.151 261.036 112.023ZM261.937 103.476L261.98 107.431H258.707C258.018 107.431 257.432 107.526 256.949 107.717C256.48 107.907 256.099 108.171 255.806 108.508C255.528 108.83 255.323 109.196 255.191 109.606C255.074 110.017 255.015 110.449 255.015 110.903C255.015 111.342 255.118 111.738 255.323 112.089C255.542 112.426 255.835 112.69 256.202 112.88C256.568 113.071 256.978 113.166 257.432 113.166C258.252 113.166 258.948 113.012 259.52 112.705C260.105 112.382 260.552 111.994 260.86 111.54C261.167 111.086 261.321 110.661 261.321 110.266L262.947 113.298C262.654 113.884 262.317 114.477 261.937 115.078C261.57 115.678 261.109 116.235 260.552 116.748C260.01 117.246 259.344 117.656 258.553 117.978C257.762 118.286 256.802 118.439 255.674 118.439C254.209 118.439 252.862 118.139 251.631 117.539C250.416 116.938 249.441 116.103 248.709 115.034C247.977 113.95 247.61 112.705 247.61 111.298C247.61 110.068 247.83 108.969 248.27 108.002C248.724 107.036 249.405 106.215 250.313 105.542C251.221 104.868 252.378 104.355 253.785 104.003C255.191 103.652 256.846 103.476 258.75 103.476H261.937ZM282.635 112.727C283.323 112.727 283.909 112.602 284.393 112.353C284.891 112.089 285.264 111.723 285.513 111.254C285.777 110.771 285.901 110.192 285.887 109.519H292.852C292.867 111.306 292.427 112.873 291.534 114.221C290.655 115.554 289.454 116.594 287.93 117.341C286.421 118.073 284.715 118.439 282.811 118.439C280.95 118.439 279.324 118.139 277.933 117.539C276.541 116.923 275.376 116.074 274.439 114.99C273.516 113.891 272.82 112.609 272.352 111.145C271.897 109.68 271.67 108.09 271.67 106.376V105.871C271.67 104.157 271.897 102.568 272.352 101.103C272.82 99.6235 273.516 98.3418 274.439 97.2578C275.376 96.1592 276.534 95.3096 277.911 94.709C279.302 94.0938 280.921 93.7861 282.767 93.7861C284.744 93.7861 286.487 94.1597 287.996 94.9067C289.52 95.6538 290.713 96.7378 291.578 98.1587C292.442 99.5796 292.867 101.301 292.852 103.322H285.887C285.901 102.604 285.792 101.96 285.557 101.389C285.323 100.817 284.957 100.363 284.458 100.026C283.975 99.6748 283.353 99.499 282.591 99.499C281.829 99.499 281.214 99.6675 280.745 100.004C280.276 100.341 279.917 100.81 279.668 101.411C279.434 101.997 279.273 102.67 279.185 103.432C279.112 104.194 279.075 105.007 279.075 105.871V106.376C279.075 107.255 279.112 108.083 279.185 108.859C279.273 109.621 279.441 110.295 279.69 110.881C279.939 111.452 280.298 111.906 280.767 112.243C281.236 112.565 281.858 112.727 282.635 112.727ZM303.487 84.228V118H296.082V84.228H303.487ZM318.692 94.2256L308.365 106.333L302.959 111.738L299.729 107.036L304.234 101.169L309.815 94.2256H318.692ZM310.76 118L304.41 107.167L309.881 103.278L319.241 118H310.76Z" fill="#424241"/>
<path d="M1363 15C1363 6.71573 1356.28 0 1348 0H1134V167H1348C1356.28 167 1363 160.284 1363 152V15Z" fill="#4361EE"/>
<path fill-rule="evenodd" clip-rule="evenodd" d="M1218.5 55C1218.37 55 1218.24 55.0527 1218.15 55.1464C1218.05 55.2402 1218 55.3674 1218 55.5V111.5C1218 111.633 1218.05 111.76 1218.15 111.854C1218.24 111.947 1218.37 112 1218.5 112H1278C1278.13 112 1278.26 111.947 1278.35 111.854C1278.45 111.76 1278.5 111.633 1278.5 111.5V66C1278.5 65.8674 1278.45 65.7402 1278.35 65.6464C1278.26 65.5527 1278.13 65.5 1278 65.5H1248.25C1247.36 65.5 1246.52 65.1045 1245.95 64.4206L1238.09 55H1218.5ZM1213.9 50.9038C1215.12 49.6848 1216.78 49 1218.5 49H1239.5C1240.39 49 1241.23 49.3955 1241.8 50.0794L1249.66 59.5H1278C1279.72 59.5 1281.38 60.1848 1282.6 61.4038C1283.82 62.6228 1284.5 64.2761 1284.5 66V111.5C1284.5 113.224 1283.82 114.877 1282.6 116.096C1281.38 117.315 1279.72 118 1278 118H1218.5C1216.78 118 1215.12 117.315 1213.9 116.096C1212.68 114.877 1212 113.224 1212 111.5V55.5C1212 53.7761 1212.68 52.1228 1213.9 50.9038Z" fill="white"/>
<path fill-rule="evenodd" clip-rule="evenodd" d="M1243.72 77.5251C1245.09 78.892 1245.09 81.108 1243.72 82.4749L1237.45 88.75L1243.72 95.0251C1245.09 96.392 1245.09 98.608 1243.72 99.9749C1242.36 101.342 1240.14 101.342 1238.78 99.9749L1230.03 91.2249C1228.66 89.858 1228.66 87.642 1230.03 86.2751L1238.78 77.5251C1240.14 76.1583 1242.36 76.1583 1243.72 77.5251Z" fill="white"/>
<path fill-rule="evenodd" clip-rule="evenodd" d="M1252.03 99.9749C1250.66 98.608 1250.66 96.392 1252.03 95.0251L1258.3 88.75L1252.03 82.4749C1250.66 81.108 1250.66 78.892 1252.03 77.5251C1253.39 76.1583 1255.61 76.1583 1256.97 77.5251L1265.72 86.2751C1267.09 87.642 1267.09 89.858 1265.72 91.2249L1256.97 99.9749C1255.61 101.342 1253.39 101.342 1252.03 99.9749Z" fill="white"/>
</svg>
