<svg width="1363" height="167" viewBox="0 0 1363 167" fill="none" xmlns="http://www.w3.org/2000/svg">
<rect width="1363" height="167" rx="15" fill="#F0F0F0"/>
<path d="M0 15C0 6.71573 6.71573 0 15 0H37V167H15C6.71573 167 0 160.284 0 152V15Z" fill="#424241"/>
<path d="M100.906 50.9219L93.3945 48.2383V45.0859L103.602 49.375V51.6367L100.906 50.9219ZM93.3945 53.1719L100.918 50.4297L103.602 49.7852V52.0352L93.3945 56.3242V53.1719ZM118.543 51.918H114.195V49.1758H118.543C119.215 49.1758 119.762 49.0664 120.184 48.8477C120.605 48.6211 120.914 48.3086 121.109 47.9102C121.305 47.5117 121.402 47.0625 121.402 46.5625C121.402 46.0547 121.305 45.582 121.109 45.1445C120.914 44.707 120.605 44.3555 120.184 44.0898C119.762 43.8242 119.215 43.6914 118.543 43.6914H115.414V58H111.898V40.9375H118.543C119.879 40.9375 121.023 41.1797 121.977 41.6641C122.938 42.1406 123.672 42.8008 124.18 43.6445C124.688 44.4883 124.941 45.4531 124.941 46.5391C124.941 47.6406 124.688 48.5938 124.18 49.3984C123.672 50.2031 122.938 50.8242 121.977 51.2617C121.023 51.6992 119.879 51.918 118.543 51.918ZM130.719 40V58H127.332V40H130.719ZM140.352 55.1406V49.4922C140.352 49.0859 140.285 48.7383 140.152 48.4492C140.02 48.1523 139.812 47.9219 139.531 47.7578C139.258 47.5938 138.902 47.5117 138.465 47.5117C138.09 47.5117 137.766 47.5781 137.492 47.7109C137.219 47.8359 137.008 48.0195 136.859 48.2617C136.711 48.4961 136.637 48.7734 136.637 49.0938H133.262C133.262 48.5547 133.387 48.043 133.637 47.5586C133.887 47.0742 134.25 46.6484 134.727 46.2812C135.203 45.9062 135.77 45.6133 136.426 45.4023C137.09 45.1914 137.832 45.0859 138.652 45.0859C139.637 45.0859 140.512 45.25 141.277 45.5781C142.043 45.9062 142.645 46.3984 143.082 47.0547C143.527 47.7109 143.75 48.5312 143.75 49.5156V54.9414C143.75 55.6367 143.793 56.207 143.879 56.6523C143.965 57.0898 144.09 57.4727 144.254 57.8008V58H140.844C140.68 57.6562 140.555 57.2266 140.469 56.7109C140.391 56.1875 140.352 55.6641 140.352 55.1406ZM140.797 50.2773L140.82 52.1875H138.934C138.488 52.1875 138.102 52.2383 137.773 52.3398C137.445 52.4414 137.176 52.5859 136.965 52.7734C136.754 52.9531 136.598 53.1641 136.496 53.4062C136.402 53.6484 136.355 53.9141 136.355 54.2031C136.355 54.4922 136.422 54.7539 136.555 54.9883C136.688 55.2148 136.879 55.3945 137.129 55.5273C137.379 55.6523 137.672 55.7148 138.008 55.7148C138.516 55.7148 138.957 55.6133 139.332 55.4102C139.707 55.207 139.996 54.957 140.199 54.6602C140.41 54.3633 140.52 54.082 140.527 53.8164L141.418 55.2461C141.293 55.5664 141.121 55.8984 140.902 56.2422C140.691 56.5859 140.422 56.9102 140.094 57.2148C139.766 57.5117 139.371 57.7578 138.91 57.9531C138.449 58.1406 137.902 58.2344 137.27 58.2344C136.465 58.2344 135.734 58.0742 135.078 57.7539C134.43 57.4258 133.914 56.9766 133.531 56.4062C133.156 55.8281 132.969 55.1719 132.969 54.4375C132.969 53.7734 133.094 53.1836 133.344 52.668C133.594 52.1523 133.961 51.7188 134.445 51.3672C134.938 51.0078 135.551 50.7383 136.285 50.5586C137.02 50.3711 137.871 50.2773 138.84 50.2773H140.797ZM149.656 48.0273V58H146.281V45.3203H149.445L149.656 48.0273ZM149.164 51.2148H148.25C148.25 50.2773 148.371 49.4336 148.613 48.6836C148.855 47.9258 149.195 47.2812 149.633 46.75C150.07 46.2109 150.59 45.8008 151.191 45.5195C151.801 45.2305 152.48 45.0859 153.23 45.0859C153.824 45.0859 154.367 45.1719 154.859 45.3438C155.352 45.5156 155.773 45.7891 156.125 46.1641C156.484 46.5391 156.758 47.0352 156.945 47.6523C157.141 48.2695 157.238 49.0234 157.238 49.9141V58H153.84V49.9023C153.84 49.3398 153.762 48.9023 153.605 48.5898C153.449 48.2773 153.219 48.0586 152.914 47.9336C152.617 47.8008 152.25 47.7344 151.812 47.7344C151.359 47.7344 150.965 47.8242 150.629 48.0039C150.301 48.1836 150.027 48.4336 149.809 48.7539C149.598 49.0664 149.438 49.4336 149.328 49.8555C149.219 50.2773 149.164 50.7305 149.164 51.2148ZM166.016 45.3203V47.7109H158.633V45.3203H166.016ZM160.461 42.1914H163.836V54.1797C163.836 54.5469 163.883 54.8281 163.977 55.0234C164.078 55.2188 164.227 55.3555 164.422 55.4336C164.617 55.5039 164.863 55.5391 165.16 55.5391C165.371 55.5391 165.559 55.5312 165.723 55.5156C165.895 55.4922 166.039 55.4688 166.156 55.4453L166.168 57.9297C165.879 58.0234 165.566 58.0977 165.23 58.1523C164.895 58.207 164.523 58.2344 164.117 58.2344C163.375 58.2344 162.727 58.1133 162.172 57.8711C161.625 57.6211 161.203 57.2227 160.906 56.6758C160.609 56.1289 160.461 55.4102 160.461 54.5195V42.1914ZM167.094 51.7891V51.543C167.094 50.6133 167.227 49.7578 167.492 48.9766C167.758 48.1875 168.145 47.5039 168.652 46.9258C169.16 46.3477 169.785 45.8984 170.527 45.5781C171.27 45.25 172.121 45.0859 173.082 45.0859C174.043 45.0859 174.898 45.25 175.648 45.5781C176.398 45.8984 177.027 46.3477 177.535 46.9258C178.051 47.5039 178.441 48.1875 178.707 48.9766C178.973 49.7578 179.105 50.6133 179.105 51.543V51.7891C179.105 52.7109 178.973 53.5664 178.707 54.3555C178.441 55.1367 178.051 55.8203 177.535 56.4062C177.027 56.9844 176.402 57.4336 175.66 57.7539C174.918 58.0742 174.066 58.2344 173.105 58.2344C172.145 58.2344 171.289 58.0742 170.539 57.7539C169.797 57.4336 169.168 56.9844 168.652 56.4062C168.145 55.8203 167.758 55.1367 167.492 54.3555C167.227 53.5664 167.094 52.7109 167.094 51.7891ZM170.469 51.543V51.7891C170.469 52.3203 170.516 52.8164 170.609 53.2773C170.703 53.7383 170.852 54.1445 171.055 54.4961C171.266 54.8398 171.539 55.1094 171.875 55.3047C172.211 55.5 172.621 55.5977 173.105 55.5977C173.574 55.5977 173.977 55.5 174.312 55.3047C174.648 55.1094 174.918 54.8398 175.121 54.4961C175.324 54.1445 175.473 53.7383 175.566 53.2773C175.668 52.8164 175.719 52.3203 175.719 51.7891V51.543C175.719 51.0273 175.668 50.543 175.566 50.0898C175.473 49.6289 175.32 49.2227 175.109 48.8711C174.906 48.5117 174.637 48.2305 174.301 48.0273C173.965 47.8242 173.559 47.7227 173.082 47.7227C172.605 47.7227 172.199 47.8242 171.863 48.0273C171.535 48.2305 171.266 48.5117 171.055 48.8711C170.852 49.2227 170.703 49.6289 170.609 50.0898C170.516 50.543 170.469 51.0273 170.469 51.543ZM180.641 51.7891V51.543C180.641 50.6133 180.773 49.7578 181.039 48.9766C181.305 48.1875 181.691 47.5039 182.199 46.9258C182.707 46.3477 183.332 45.8984 184.074 45.5781C184.816 45.25 185.668 45.0859 186.629 45.0859C187.59 45.0859 188.445 45.25 189.195 45.5781C189.945 45.8984 190.574 46.3477 191.082 46.9258C191.598 47.5039 191.988 48.1875 192.254 48.9766C192.52 49.7578 192.652 50.6133 192.652 51.543V51.7891C192.652 52.7109 192.52 53.5664 192.254 54.3555C191.988 55.1367 191.598 55.8203 191.082 56.4062C190.574 56.9844 189.949 57.4336 189.207 57.7539C188.465 58.0742 187.613 58.2344 186.652 58.2344C185.691 58.2344 184.836 58.0742 184.086 57.7539C183.344 57.4336 182.715 56.9844 182.199 56.4062C181.691 55.8203 181.305 55.1367 181.039 54.3555C180.773 53.5664 180.641 52.7109 180.641 51.7891ZM184.016 51.543V51.7891C184.016 52.3203 184.062 52.8164 184.156 53.2773C184.25 53.7383 184.398 54.1445 184.602 54.4961C184.812 54.8398 185.086 55.1094 185.422 55.3047C185.758 55.5 186.168 55.5977 186.652 55.5977C187.121 55.5977 187.523 55.5 187.859 55.3047C188.195 55.1094 188.465 54.8398 188.668 54.4961C188.871 54.1445 189.02 53.7383 189.113 53.2773C189.215 52.8164 189.266 52.3203 189.266 51.7891V51.543C189.266 51.0273 189.215 50.543 189.113 50.0898C189.02 49.6289 188.867 49.2227 188.656 48.8711C188.453 48.5117 188.184 48.2305 187.848 48.0273C187.512 47.8242 187.105 47.7227 186.629 47.7227C186.152 47.7227 185.746 47.8242 185.41 48.0273C185.082 48.2305 184.812 48.5117 184.602 48.8711C184.398 49.2227 184.25 49.6289 184.156 50.0898C184.062 50.543 184.016 51.0273 184.016 51.543ZM198.289 40V58H194.902V40H198.289Z" fill="#888888"/>
<path d="M115.994 98.708V104.641H99.5806V98.708H115.994ZM102.151 86.0078V118H94.439V86.0078H102.151ZM121.18 86.0078V118H113.489V86.0078H121.18ZM124.805 106.354V105.893C124.805 104.15 125.054 102.546 125.552 101.081C126.05 99.6016 126.783 98.3198 127.75 97.2358C128.716 96.1519 129.91 95.3096 131.331 94.709C132.752 94.0938 134.393 93.7861 136.253 93.7861C138.128 93.7861 139.776 94.0938 141.197 94.709C142.632 95.3096 143.833 96.1519 144.8 97.2358C145.767 98.3198 146.5 99.6016 146.998 101.081C147.496 102.546 147.745 104.15 147.745 105.893V106.354C147.745 108.083 147.496 109.687 146.998 111.167C146.5 112.631 145.767 113.913 144.8 115.012C143.833 116.096 142.64 116.938 141.219 117.539C139.798 118.139 138.157 118.439 136.297 118.439C134.437 118.439 132.789 118.139 131.353 117.539C129.917 116.938 128.716 116.096 127.75 115.012C126.783 113.913 126.05 112.631 125.552 111.167C125.054 109.687 124.805 108.083 124.805 106.354ZM132.21 105.893V106.354C132.21 107.248 132.276 108.083 132.408 108.859C132.54 109.636 132.759 110.317 133.067 110.903C133.375 111.474 133.792 111.921 134.319 112.243C134.847 112.565 135.506 112.727 136.297 112.727C137.073 112.727 137.718 112.565 138.23 112.243C138.758 111.921 139.175 111.474 139.483 110.903C139.791 110.317 140.01 109.636 140.142 108.859C140.274 108.083 140.34 107.248 140.34 106.354V105.893C140.34 105.029 140.274 104.216 140.142 103.454C140.01 102.678 139.791 101.997 139.483 101.411C139.175 100.81 138.758 100.341 138.23 100.004C137.703 99.6675 137.044 99.499 136.253 99.499C135.477 99.499 134.825 99.6675 134.297 100.004C133.785 100.341 133.375 100.81 133.067 101.411C132.759 101.997 132.54 102.678 132.408 103.454C132.276 104.216 132.21 105.029 132.21 105.893ZM158.27 110.925L162.664 94.2256H167.3L165.652 102.597L161.302 118H157.588L158.27 110.925ZM156.534 94.2256L159.258 110.793L159.566 118H155.062L149.437 94.2256H156.534ZM171.211 110.441L173.958 94.2256H181.055L175.474 118H170.97L171.211 110.441ZM167.828 94.2256L172.266 110.881L172.947 118H169.19L164.927 102.641L163.345 94.2256H167.828ZM209.466 86.0078V118H201.753V86.0078H209.466ZM219.09 86.0078V91.9624H192.349V86.0078H219.09ZM216.475 106.354V105.893C216.475 104.15 216.724 102.546 217.222 101.081C217.72 99.6016 218.453 98.3198 219.419 97.2358C220.386 96.1519 221.58 95.3096 223.001 94.709C224.422 94.0938 226.062 93.7861 227.923 93.7861C229.798 93.7861 231.446 94.0938 232.867 94.709C234.302 95.3096 235.503 96.1519 236.47 97.2358C237.437 98.3198 238.169 99.6016 238.667 101.081C239.166 102.546 239.415 104.15 239.415 105.893V106.354C239.415 108.083 239.166 109.687 238.667 111.167C238.169 112.631 237.437 113.913 236.47 115.012C235.503 116.096 234.31 116.938 232.889 117.539C231.468 118.139 229.827 118.439 227.967 118.439C226.106 118.439 224.458 118.139 223.023 117.539C221.587 116.938 220.386 116.096 219.419 115.012C218.453 113.913 217.72 112.631 217.222 111.167C216.724 109.687 216.475 108.083 216.475 106.354ZM223.88 105.893V106.354C223.88 107.248 223.946 108.083 224.078 108.859C224.209 109.636 224.429 110.317 224.737 110.903C225.044 111.474 225.462 111.921 225.989 112.243C226.517 112.565 227.176 112.727 227.967 112.727C228.743 112.727 229.388 112.565 229.9 112.243C230.428 111.921 230.845 111.474 231.153 110.903C231.46 110.317 231.68 109.636 231.812 108.859C231.944 108.083 232.01 107.248 232.01 106.354V105.893C232.01 105.029 231.944 104.216 231.812 103.454C231.68 102.678 231.46 101.997 231.153 101.411C230.845 100.81 230.428 100.341 229.9 100.004C229.373 99.6675 228.714 99.499 227.923 99.499C227.146 99.499 226.495 99.6675 225.967 100.004C225.455 100.341 225.044 100.81 224.737 101.411C224.429 101.997 224.209 102.678 224.078 103.454C223.946 104.216 223.88 105.029 223.88 105.893ZM254.268 86.0078H266.858C269.319 86.0078 271.458 86.374 273.274 87.1064C275.091 87.8389 276.49 88.9229 277.471 90.3584C278.467 91.7939 278.965 93.5664 278.965 95.6758C278.965 97.5068 278.68 99.0376 278.108 100.268C277.537 101.499 276.739 102.517 275.713 103.322C274.703 104.113 273.523 104.765 272.176 105.278L269.649 106.706H259.08L259.036 100.751H266.858C267.84 100.751 268.653 100.576 269.297 100.224C269.942 99.8726 270.425 99.3745 270.748 98.73C271.084 98.0708 271.253 97.2871 271.253 96.3789C271.253 95.4561 271.084 94.665 270.748 94.0059C270.411 93.3467 269.913 92.8413 269.253 92.4897C268.609 92.1382 267.811 91.9624 266.858 91.9624H261.98V118H254.268V86.0078ZM271.78 118L264.705 103.85L272.879 103.806L280.042 117.67V118H271.78ZM297.159 112.221V94.2256H304.585V118H297.642L297.159 112.221ZM297.862 107.387L299.795 107.343C299.795 108.94 299.605 110.419 299.224 111.782C298.843 113.129 298.279 114.301 297.532 115.297C296.8 116.293 295.892 117.07 294.808 117.626C293.738 118.168 292.5 118.439 291.094 118.439C289.922 118.439 288.846 118.278 287.864 117.956C286.897 117.619 286.062 117.099 285.359 116.396C284.656 115.678 284.107 114.763 283.711 113.649C283.331 112.521 283.14 111.174 283.14 109.606V94.2256H290.545V109.65C290.545 110.178 290.611 110.632 290.743 111.013C290.875 111.394 291.065 111.716 291.314 111.979C291.563 112.229 291.871 112.419 292.237 112.551C292.618 112.668 293.05 112.727 293.533 112.727C294.646 112.727 295.518 112.492 296.148 112.023C296.778 111.555 297.217 110.917 297.466 110.112C297.73 109.306 297.862 108.398 297.862 107.387ZM315.945 99.3013V118H308.541V94.2256H315.484L315.945 99.3013ZM315.066 105.3L313.331 105.344C313.331 103.527 313.55 101.909 313.99 100.488C314.429 99.0522 315.052 97.8364 315.857 96.8403C316.663 95.8442 317.623 95.0898 318.736 94.5771C319.864 94.0498 321.116 93.7861 322.493 93.7861C323.592 93.7861 324.595 93.9473 325.503 94.2695C326.426 94.5918 327.217 95.1118 327.876 95.8296C328.55 96.5474 329.063 97.4995 329.415 98.686C329.781 99.8579 329.964 101.308 329.964 103.037V118H322.515V103.015C322.515 102.062 322.383 101.337 322.12 100.839C321.856 100.327 321.475 99.9751 320.977 99.7847C320.479 99.5942 319.871 99.499 319.153 99.499C318.392 99.499 317.747 99.6455 317.22 99.9385C316.692 100.231 316.268 100.642 315.945 101.169C315.638 101.682 315.411 102.29 315.264 102.993C315.132 103.696 315.066 104.465 315.066 105.3ZM345.85 107.871H339.544C339.544 106.582 339.632 105.446 339.808 104.465C339.998 103.469 340.32 102.575 340.774 101.784C341.229 100.993 341.844 100.261 342.62 99.5869C343.309 99.0156 343.902 98.4663 344.4 97.939C344.898 97.4116 345.279 96.877 345.542 96.335C345.806 95.793 345.938 95.2144 345.938 94.5991C345.938 93.8374 345.828 93.2148 345.608 92.7314C345.403 92.248 345.088 91.8892 344.664 91.6548C344.253 91.4058 343.733 91.2812 343.104 91.2812C342.591 91.2812 342.107 91.4058 341.653 91.6548C341.214 91.9038 340.855 92.292 340.577 92.8193C340.298 93.332 340.145 94.0132 340.115 94.8628H332.667C332.71 92.6802 333.194 90.9077 334.117 89.5454C335.054 88.1685 336.299 87.165 337.852 86.5352C339.419 85.8906 341.17 85.5684 343.104 85.5684C345.242 85.5684 347.081 85.8979 348.619 86.5571C350.157 87.2163 351.336 88.1978 352.156 89.5015C352.977 90.7905 353.387 92.3799 353.387 94.2695C353.387 95.5293 353.145 96.6279 352.662 97.5654C352.193 98.4883 351.556 99.3525 350.75 100.158C349.959 100.949 349.073 101.799 348.091 102.707C347.242 103.454 346.663 104.216 346.355 104.992C346.048 105.754 345.879 106.713 345.85 107.871ZM338.643 114.55C338.643 113.496 339.024 112.617 339.786 111.914C340.547 111.196 341.536 110.837 342.752 110.837C343.968 110.837 344.957 111.196 345.718 111.914C346.48 112.617 346.861 113.496 346.861 114.55C346.861 115.605 346.48 116.491 345.718 117.209C344.957 117.912 343.968 118.264 342.752 118.264C341.536 118.264 340.547 117.912 339.786 117.209C339.024 116.491 338.643 115.605 338.643 114.55Z" fill="#424241"/>
<path d="M1363 15C1363 6.71573 1356.28 0 1348 0H1134V167H1348C1356.28 167 1363 160.284 1363 152V15Z" fill="#4361EE"/>
<path d="M1260.77 81.3079C1263.96 81.3079 1267.09 82.2553 1269.74 84.0303C1272.4 85.8053 1274.47 88.3282 1275.69 91.2799C1276.92 94.2316 1277.24 97.4796 1276.61 100.613C1275.99 103.747 1274.45 106.625 1272.19 108.884C1269.93 111.143 1267.05 112.682 1263.92 113.305C1260.79 113.928 1257.54 113.608 1254.59 112.386C1251.64 111.163 1249.11 109.093 1247.34 106.436C1245.56 103.78 1244.62 100.657 1244.62 97.4617C1244.62 93.1774 1246.32 89.0686 1249.35 86.0392C1252.38 83.0098 1256.48 81.3079 1260.77 81.3079ZM1260.77 75.9233C1256.51 75.9233 1252.35 77.1865 1248.8 79.5532C1245.26 81.9198 1242.5 85.2837 1240.87 89.2193C1239.24 93.1549 1238.81 97.4856 1239.64 101.664C1240.48 105.842 1242.53 109.679 1245.54 112.692C1248.55 115.704 1252.39 117.755 1256.57 118.586C1260.75 119.417 1265.08 118.991 1269.01 117.361C1272.95 115.73 1276.31 112.97 1278.68 109.428C1281.04 105.886 1282.31 101.722 1282.31 97.4617C1282.31 91.7493 1280.04 86.271 1276 82.2317C1271.96 78.1925 1266.48 75.9233 1260.77 75.9233Z" fill="white"/>
<path d="M1274.23 49H1220.38C1218.96 49 1217.59 49.5673 1216.58 50.5771C1215.57 51.5869 1215 52.9565 1215 54.3846V108.231C1215 109.659 1215.57 111.028 1216.58 112.038C1217.59 113.048 1218.96 113.615 1220.38 113.615H1231.15V108.231H1220.38V70.5384H1279.62V54.3846C1279.62 52.9565 1279.05 51.5869 1278.04 50.5771C1277.03 49.5673 1275.66 49 1274.23 49ZM1220.38 65.1538V54.3846H1274.23V65.1538H1220.38Z" fill="white"/>
<path d="M1255.38 89.3849V105.539L1268.85 97.4618L1255.38 89.3849Z" fill="white"/>
</svg>
