<svg width="1363" height="301" viewBox="0 0 1363 301" fill="none" xmlns="http://www.w3.org/2000/svg">
<rect width="1363" height="301" rx="15" fill="#F0F0F0"/>
<path d="M0 15C0 6.71573 6.71573 0 15 0H37V301H15C6.71573 301 0 294.284 0 286V15Z" fill="#4361EE"/>
<path d="M110.584 130.733H100.862V123.456H110.584C111.909 123.456 112.983 123.232 113.807 122.784C114.63 122.337 115.23 121.719 115.606 120.931C116 120.125 116.197 119.221 116.197 118.219C116.197 117.145 116 116.151 115.606 115.238C115.23 114.325 114.63 113.591 113.807 113.036C112.983 112.463 111.909 112.176 110.584 112.176H104.407V144H94.981V104.898H110.584C113.717 104.898 116.412 105.471 118.667 106.617C120.941 107.763 122.687 109.339 123.904 111.344C125.122 113.331 125.73 115.605 125.73 118.165C125.73 120.689 125.122 122.892 123.904 124.771C122.687 126.651 120.941 128.119 118.667 129.176C116.412 130.214 113.717 130.733 110.584 130.733ZM139.937 102.75V144H130.86V102.75H139.937ZM160.616 136.695V124.718C160.616 123.894 160.499 123.187 160.267 122.596C160.034 122.005 159.667 121.549 159.166 121.227C158.664 120.886 157.993 120.716 157.151 120.716C156.471 120.716 155.889 120.833 155.406 121.065C154.922 121.298 154.555 121.647 154.305 122.113C154.054 122.578 153.929 123.169 153.929 123.885H144.878C144.878 122.542 145.174 121.298 145.765 120.152C146.373 118.989 147.233 117.977 148.343 117.118C149.471 116.258 150.813 115.596 152.371 115.13C153.947 114.647 155.701 114.405 157.635 114.405C159.944 114.405 162.003 114.79 163.812 115.56C165.638 116.33 167.079 117.485 168.135 119.024C169.192 120.546 169.72 122.462 169.72 124.771V136.668C169.72 138.566 169.827 140.007 170.042 140.992C170.257 141.959 170.561 142.809 170.955 143.543V144H161.878C161.448 143.105 161.126 142.013 160.911 140.724C160.714 139.417 160.616 138.074 160.616 136.695ZM161.717 126.249L161.771 131.083H157.769C156.928 131.083 156.211 131.199 155.621 131.432C155.048 131.664 154.582 131.987 154.224 132.398C153.884 132.792 153.633 133.24 153.472 133.741C153.329 134.243 153.257 134.771 153.257 135.326C153.257 135.863 153.383 136.346 153.633 136.776C153.902 137.188 154.26 137.51 154.708 137.743C155.155 137.975 155.656 138.092 156.211 138.092C157.214 138.092 158.064 137.904 158.763 137.528C159.479 137.134 160.025 136.66 160.401 136.104C160.777 135.549 160.965 135.03 160.965 134.547L162.952 138.253C162.594 138.969 162.182 139.694 161.717 140.428C161.269 141.162 160.705 141.843 160.025 142.469C159.362 143.078 158.548 143.579 157.581 143.973C156.614 144.349 155.442 144.537 154.063 144.537C152.273 144.537 150.625 144.17 149.122 143.436C147.636 142.702 146.445 141.681 145.55 140.375C144.655 139.05 144.207 137.528 144.207 135.809C144.207 134.305 144.476 132.962 145.013 131.781C145.568 130.599 146.4 129.597 147.51 128.773C148.62 127.949 150.035 127.323 151.753 126.893C153.472 126.463 155.495 126.249 157.823 126.249H161.717ZM183.631 121.146V144H174.581V114.942H183.067L183.631 121.146ZM182.557 128.478L180.435 128.531C180.435 126.311 180.704 124.333 181.241 122.596C181.778 120.842 182.539 119.356 183.523 118.138C184.508 116.921 185.681 115.999 187.042 115.372C188.42 114.728 189.951 114.405 191.634 114.405C192.977 114.405 194.203 114.602 195.313 114.996C196.441 115.39 197.408 116.026 198.213 116.903C199.037 117.78 199.664 118.944 200.093 120.394C200.541 121.826 200.765 123.599 200.765 125.711V144H191.661V125.685C191.661 124.521 191.5 123.635 191.177 123.026C190.855 122.399 190.389 121.97 189.781 121.737C189.172 121.504 188.429 121.388 187.552 121.388C186.621 121.388 185.833 121.567 185.188 121.925C184.544 122.283 184.025 122.784 183.631 123.429C183.255 124.055 182.977 124.798 182.798 125.658C182.637 126.517 182.557 127.457 182.557 128.478ZM221.094 114.942V121.227H203.584V114.942H221.094ZM207.264 107.718H216.314V134.52C216.314 135.29 216.403 135.89 216.583 136.319C216.762 136.731 217.066 137.027 217.496 137.206C217.943 137.367 218.534 137.447 219.268 137.447C219.787 137.447 220.217 137.438 220.557 137.42C220.897 137.385 221.22 137.34 221.524 137.286V143.758C220.754 144.009 219.948 144.197 219.107 144.322C218.265 144.465 217.37 144.537 216.421 144.537C214.488 144.537 212.832 144.233 211.453 143.624C210.092 143.015 209.054 142.057 208.338 140.75C207.622 139.444 207.264 137.743 207.264 135.648V107.718ZM222.759 129.767V129.203C222.759 127.072 223.064 125.112 223.672 123.321C224.281 121.513 225.176 119.946 226.358 118.622C227.54 117.297 228.999 116.267 230.735 115.533C232.472 114.781 234.477 114.405 236.751 114.405C239.043 114.405 241.057 114.781 242.793 115.533C244.548 116.267 246.016 117.297 247.198 118.622C248.379 119.946 249.275 121.513 249.883 123.321C250.492 125.112 250.796 127.072 250.796 129.203V129.767C250.796 131.879 250.492 133.84 249.883 135.648C249.275 137.438 248.379 139.005 247.198 140.348C246.016 141.673 244.557 142.702 242.82 143.436C241.084 144.17 239.078 144.537 236.805 144.537C234.531 144.537 232.517 144.17 230.762 143.436C229.008 142.702 227.54 141.673 226.358 140.348C225.176 139.005 224.281 137.438 223.672 135.648C223.064 133.84 222.759 131.879 222.759 129.767ZM231.81 129.203V129.767C231.81 130.859 231.89 131.879 232.051 132.828C232.212 133.777 232.481 134.61 232.857 135.326C233.233 136.024 233.743 136.57 234.388 136.964C235.032 137.358 235.838 137.555 236.805 137.555C237.754 137.555 238.541 137.358 239.168 136.964C239.812 136.57 240.323 136.024 240.699 135.326C241.075 134.61 241.343 133.777 241.504 132.828C241.666 131.879 241.746 130.859 241.746 129.767V129.203C241.746 128.146 241.666 127.153 241.504 126.222C241.343 125.273 241.075 124.44 240.699 123.724C240.323 122.99 239.812 122.417 239.168 122.005C238.523 121.594 237.718 121.388 236.751 121.388C235.802 121.388 235.005 121.594 234.361 122.005C233.734 122.417 233.233 122.99 232.857 123.724C232.481 124.44 232.212 125.273 232.051 126.222C231.89 127.153 231.81 128.146 231.81 129.203ZM253.697 129.767V129.203C253.697 127.072 254.001 125.112 254.61 123.321C255.219 121.513 256.114 119.946 257.295 118.622C258.477 117.297 259.936 116.267 261.673 115.533C263.41 114.781 265.415 114.405 267.688 114.405C269.98 114.405 271.994 114.781 273.731 115.533C275.486 116.267 276.954 117.297 278.135 118.622C279.317 119.946 280.212 121.513 280.821 123.321C281.43 125.112 281.734 127.072 281.734 129.203V129.767C281.734 131.879 281.43 133.84 280.821 135.648C280.212 137.438 279.317 139.005 278.135 140.348C276.954 141.673 275.494 142.702 273.758 143.436C272.021 144.17 270.016 144.537 267.742 144.537C265.468 144.537 263.454 144.17 261.7 143.436C259.945 142.702 258.477 141.673 257.295 140.348C256.114 139.005 255.219 137.438 254.61 135.648C254.001 133.84 253.697 131.879 253.697 129.767ZM262.747 129.203V129.767C262.747 130.859 262.828 131.879 262.989 132.828C263.15 133.777 263.418 134.61 263.794 135.326C264.17 136.024 264.681 136.57 265.325 136.964C265.97 137.358 266.775 137.555 267.742 137.555C268.691 137.555 269.479 137.358 270.105 136.964C270.75 136.57 271.26 136.024 271.636 135.326C272.012 134.61 272.281 133.777 272.442 132.828C272.603 131.879 272.684 130.859 272.684 129.767V129.203C272.684 128.146 272.603 127.153 272.442 126.222C272.281 125.273 272.012 124.44 271.636 123.724C271.26 122.99 270.75 122.417 270.105 122.005C269.461 121.594 268.655 121.388 267.688 121.388C266.74 121.388 265.943 121.594 265.298 122.005C264.672 122.417 264.17 122.99 263.794 123.724C263.418 124.44 263.15 125.273 262.989 126.222C262.828 127.153 262.747 128.146 262.747 129.203ZM295.323 102.75V144H286.246V102.75H295.323Z" fill="black"/>
<path d="M96.563 55.1172H100.904L107.295 73.3862L113.687 55.1172H118.028L109.039 80H105.552L96.563 55.1172ZM94.2217 55.1172H98.5454L99.3315 72.9248V80H94.2217V55.1172ZM116.045 55.1172H120.386V80H115.259V72.9248L116.045 55.1172ZM123.787 70.9424V70.5835C123.787 69.2277 123.981 67.9801 124.368 66.8408C124.756 65.6901 125.319 64.6932 126.06 63.8501C126.801 63.007 127.712 62.3519 128.794 61.8848C129.877 61.4062 131.119 61.167 132.52 61.167C133.921 61.167 135.169 61.4062 136.263 61.8848C137.356 62.3519 138.274 63.007 139.014 63.8501C139.766 64.6932 140.336 65.6901 140.723 66.8408C141.111 67.9801 141.304 69.2277 141.304 70.5835V70.9424C141.304 72.2868 141.111 73.5343 140.723 74.6851C140.336 75.8244 139.766 76.8213 139.014 77.6758C138.274 78.5189 137.362 79.174 136.28 79.6411C135.197 80.1082 133.956 80.3418 132.554 80.3418C131.153 80.3418 129.905 80.1082 128.812 79.6411C127.729 79.174 126.812 78.5189 126.06 77.6758C125.319 76.8213 124.756 75.8244 124.368 74.6851C123.981 73.5343 123.787 72.2868 123.787 70.9424ZM128.709 70.5835V70.9424C128.709 71.7171 128.777 72.4406 128.914 73.1128C129.051 73.785 129.267 74.3774 129.563 74.8901C129.871 75.3914 130.27 75.7845 130.76 76.0693C131.25 76.3542 131.848 76.4966 132.554 76.4966C133.238 76.4966 133.825 76.3542 134.314 76.0693C134.804 75.7845 135.197 75.3914 135.494 74.8901C135.79 74.3774 136.006 73.785 136.143 73.1128C136.291 72.4406 136.365 71.7171 136.365 70.9424V70.5835C136.365 69.8315 136.291 69.1252 136.143 68.4644C136.006 67.7922 135.784 67.1997 135.477 66.687C135.18 66.1629 134.787 65.7528 134.297 65.4565C133.807 65.1603 133.215 65.0122 132.52 65.0122C131.825 65.0122 131.233 65.1603 130.743 65.4565C130.264 65.7528 129.871 66.1629 129.563 66.687C129.267 67.1997 129.051 67.7922 128.914 68.4644C128.777 69.1252 128.709 69.8315 128.709 70.5835ZM149.131 53.75V80H144.209V53.75H149.131ZM148.431 70.105H147.081C147.092 68.8175 147.263 67.6326 147.593 66.5503C147.924 65.4565 148.396 64.5109 149.012 63.7134C149.627 62.9045 150.362 62.2778 151.216 61.8335C152.082 61.3892 153.039 61.167 154.087 61.167C154.999 61.167 155.825 61.298 156.565 61.5601C157.317 61.8107 157.961 62.2209 158.497 62.7905C159.043 63.3488 159.465 64.0837 159.761 64.9951C160.057 65.9066 160.206 67.0117 160.206 68.3105V80H155.25V68.2764C155.25 67.4561 155.13 66.8123 154.891 66.3452C154.663 65.8667 154.327 65.5306 153.882 65.3369C153.449 65.1318 152.914 65.0293 152.276 65.0293C151.569 65.0293 150.966 65.1603 150.464 65.4224C149.974 65.6844 149.581 66.049 149.285 66.5161C148.989 66.9718 148.772 67.5073 148.636 68.1226C148.499 68.7378 148.431 69.3986 148.431 70.105ZM173.929 75.8301V67.5928C173.929 67.0003 173.832 66.4933 173.638 66.0718C173.444 65.6388 173.143 65.3027 172.732 65.0635C172.334 64.8242 171.815 64.7046 171.177 64.7046C170.63 64.7046 170.158 64.8014 169.759 64.9951C169.36 65.1774 169.052 65.4451 168.836 65.7983C168.619 66.1401 168.511 66.5446 168.511 67.0117H163.589C163.589 66.2256 163.772 65.4793 164.136 64.7729C164.501 64.0666 165.031 63.4456 165.726 62.9102C166.421 62.3633 167.247 61.936 168.204 61.6284C169.172 61.3208 170.254 61.167 171.451 61.167C172.886 61.167 174.162 61.4062 175.279 61.8848C176.395 62.3633 177.273 63.0811 177.911 64.0381C178.56 64.9951 178.885 66.1914 178.885 67.627V75.5396C178.885 76.5535 178.947 77.3853 179.073 78.0347C179.198 78.6727 179.38 79.231 179.62 79.7095V80H174.646C174.407 79.4987 174.225 78.8721 174.1 78.1201C173.986 77.3568 173.929 76.5934 173.929 75.8301ZM174.578 68.7378L174.612 71.5234H171.861C171.211 71.5234 170.647 71.5975 170.169 71.7456C169.69 71.8937 169.297 72.1045 168.99 72.3779C168.682 72.64 168.454 72.9476 168.306 73.3008C168.169 73.654 168.101 74.0413 168.101 74.4629C168.101 74.8844 168.198 75.2661 168.392 75.6079C168.585 75.9383 168.864 76.2004 169.229 76.394C169.594 76.5763 170.021 76.6675 170.511 76.6675C171.251 76.6675 171.895 76.5194 172.442 76.2231C172.989 75.9269 173.41 75.5623 173.707 75.1294C174.014 74.6965 174.174 74.2863 174.185 73.8989L175.484 75.9839C175.302 76.451 175.051 76.9352 174.732 77.4365C174.424 77.9378 174.031 78.4106 173.553 78.855C173.074 79.2879 172.499 79.6468 171.827 79.9316C171.154 80.2051 170.357 80.3418 169.434 80.3418C168.261 80.3418 167.195 80.1082 166.238 79.6411C165.293 79.1626 164.541 78.5075 163.982 77.6758C163.436 76.8327 163.162 75.8757 163.162 74.8047C163.162 73.8363 163.344 72.9761 163.709 72.2241C164.074 71.4722 164.609 70.8398 165.315 70.3271C166.033 69.8031 166.928 69.41 167.999 69.1479C169.069 68.8745 170.311 68.7378 171.724 68.7378H174.578ZM187.601 65.3369V80H182.662V61.5088H187.293L187.601 65.3369ZM186.917 70.105H185.55C185.55 68.8175 185.704 67.6326 186.011 66.5503C186.33 65.4565 186.792 64.5109 187.396 63.7134C188.011 62.9045 188.768 62.2778 189.668 61.8335C190.569 61.3892 191.611 61.167 192.796 61.167C193.616 61.167 194.368 61.2923 195.052 61.543C195.735 61.7822 196.322 62.1639 196.812 62.688C197.313 63.2007 197.701 63.8729 197.974 64.7046C198.248 65.5249 198.384 66.5104 198.384 67.6611V80H193.462V68.208C193.462 67.3649 193.348 66.7155 193.121 66.2598C192.893 65.804 192.568 65.485 192.146 65.3027C191.736 65.1204 191.241 65.0293 190.66 65.0293C190.022 65.0293 189.463 65.1603 188.985 65.4224C188.518 65.6844 188.13 66.049 187.823 66.5161C187.515 66.9718 187.287 67.5073 187.139 68.1226C186.991 68.7378 186.917 69.3986 186.917 70.105ZM197.923 69.541L196.163 69.7632C196.163 68.5555 196.311 67.4333 196.607 66.3965C196.915 65.3597 197.365 64.4482 197.957 63.6621C198.561 62.876 199.307 62.2664 200.196 61.8335C201.084 61.3892 202.11 61.167 203.272 61.167C204.161 61.167 204.97 61.298 205.699 61.5601C206.428 61.8107 207.049 62.2152 207.562 62.7734C208.086 63.3203 208.484 64.0381 208.758 64.9268C209.043 65.8154 209.185 66.9035 209.185 68.1909V80H204.246V68.1909C204.246 67.3364 204.132 66.687 203.904 66.2427C203.688 65.7869 203.369 65.4736 202.947 65.3027C202.537 65.1204 202.047 65.0293 201.478 65.0293C200.885 65.0293 200.367 65.1489 199.922 65.3882C199.478 65.616 199.108 65.9351 198.812 66.3452C198.515 66.7554 198.293 67.2339 198.145 67.7808C197.997 68.3162 197.923 68.903 197.923 69.541ZM222.977 75.8301V67.5928C222.977 67.0003 222.88 66.4933 222.686 66.0718C222.492 65.6388 222.19 65.3027 221.78 65.0635C221.382 64.8242 220.863 64.7046 220.225 64.7046C219.678 64.7046 219.205 64.8014 218.807 64.9951C218.408 65.1774 218.1 65.4451 217.884 65.7983C217.667 66.1401 217.559 66.5446 217.559 67.0117H212.637C212.637 66.2256 212.819 65.4793 213.184 64.7729C213.549 64.0666 214.078 63.4456 214.773 62.9102C215.468 62.3633 216.294 61.936 217.251 61.6284C218.22 61.3208 219.302 61.167 220.499 61.167C221.934 61.167 223.21 61.4062 224.327 61.8848C225.443 62.3633 226.32 63.0811 226.958 64.0381C227.608 64.9951 227.933 66.1914 227.933 67.627V75.5396C227.933 76.5535 227.995 77.3853 228.121 78.0347C228.246 78.6727 228.428 79.231 228.667 79.7095V80H223.694C223.455 79.4987 223.273 78.8721 223.147 78.1201C223.034 77.3568 222.977 76.5934 222.977 75.8301ZM223.626 68.7378L223.66 71.5234H220.909C220.259 71.5234 219.695 71.5975 219.217 71.7456C218.738 71.8937 218.345 72.1045 218.038 72.3779C217.73 72.64 217.502 72.9476 217.354 73.3008C217.217 73.654 217.149 74.0413 217.149 74.4629C217.149 74.8844 217.246 75.2661 217.439 75.6079C217.633 75.9383 217.912 76.2004 218.277 76.394C218.641 76.5763 219.069 76.6675 219.559 76.6675C220.299 76.6675 220.943 76.5194 221.49 76.2231C222.037 75.9269 222.458 75.5623 222.754 75.1294C223.062 74.6965 223.222 74.2863 223.233 73.8989L224.532 75.9839C224.349 76.451 224.099 76.9352 223.78 77.4365C223.472 77.9378 223.079 78.4106 222.601 78.855C222.122 79.2879 221.547 79.6468 220.875 79.9316C220.202 80.2051 219.405 80.3418 218.482 80.3418C217.308 80.3418 216.243 80.1082 215.286 79.6411C214.34 79.1626 213.589 78.5075 213.03 77.6758C212.483 76.8327 212.21 75.8757 212.21 74.8047C212.21 73.8363 212.392 72.9761 212.757 72.2241C213.121 71.4722 213.657 70.8398 214.363 70.3271C215.081 69.8031 215.975 69.41 217.046 69.1479C218.117 68.8745 219.359 68.7378 220.772 68.7378H223.626ZM242.647 75.9668V53.75H247.603V80H243.143L242.647 75.9668ZM230.958 70.9766V70.6177C230.958 69.2049 231.117 67.9232 231.436 66.7725C231.755 65.6104 232.222 64.6134 232.837 63.7817C233.453 62.95 234.21 62.3063 235.11 61.8506C236.01 61.3949 237.036 61.167 238.187 61.167C239.269 61.167 240.215 61.3949 241.023 61.8506C241.844 62.3063 242.539 62.9557 243.108 63.7988C243.689 64.6305 244.157 65.616 244.51 66.7554C244.863 67.8833 245.119 69.1195 245.279 70.4639V71.25C245.119 72.5374 244.863 73.7337 244.51 74.8389C244.157 75.944 243.689 76.9124 243.108 77.7441C242.539 78.5645 241.844 79.2025 241.023 79.6582C240.203 80.1139 239.246 80.3418 238.152 80.3418C237.002 80.3418 235.976 80.1082 235.076 79.6411C234.188 79.174 233.436 78.5189 232.82 77.6758C232.216 76.8327 231.755 75.8415 231.436 74.7021C231.117 73.5628 230.958 72.321 230.958 70.9766ZM235.879 70.6177V70.9766C235.879 71.7399 235.936 72.452 236.05 73.1128C236.176 73.7736 236.375 74.3604 236.648 74.873C236.933 75.3743 237.298 75.7674 237.742 76.0522C238.198 76.3257 238.75 76.4624 239.4 76.4624C240.243 76.4624 240.938 76.2744 241.485 75.8984C242.032 75.5111 242.448 74.9813 242.732 74.3091C243.029 73.6369 243.2 72.8621 243.245 71.9849V69.7461C243.211 69.0283 243.108 68.3846 242.938 67.8149C242.778 67.2339 242.539 66.7383 242.22 66.3281C241.912 65.918 241.525 65.599 241.058 65.3711C240.602 65.1432 240.061 65.0293 239.434 65.0293C238.796 65.0293 238.249 65.1774 237.793 65.4736C237.338 65.7585 236.967 66.1515 236.683 66.6528C236.409 67.1541 236.204 67.7466 236.067 68.4302C235.942 69.1024 235.879 69.8315 235.879 70.6177ZM273.426 73.4888C273.426 73.0444 273.357 72.6457 273.221 72.2925C273.095 71.9279 272.856 71.5975 272.503 71.3013C272.15 70.9937 271.654 70.6917 271.016 70.3955C270.378 70.0993 269.552 69.7917 268.538 69.4727C267.41 69.1081 266.339 68.6979 265.325 68.2422C264.323 67.7865 263.434 67.2567 262.659 66.6528C261.896 66.0376 261.292 65.3255 260.848 64.5166C260.415 63.7077 260.198 62.7677 260.198 61.6968C260.198 60.66 260.426 59.7201 260.882 58.877C261.338 58.0225 261.976 57.2933 262.796 56.6895C263.616 56.0742 264.585 55.6014 265.701 55.271C266.829 54.9406 268.065 54.7754 269.41 54.7754C271.244 54.7754 272.845 55.1058 274.212 55.7666C275.579 56.4274 276.639 57.3332 277.391 58.4839C278.154 59.6346 278.536 60.9505 278.536 62.4316H273.443C273.443 61.7025 273.289 61.0645 272.981 60.5176C272.685 59.9593 272.229 59.5207 271.614 59.2017C271.01 58.8826 270.247 58.7231 269.324 58.7231C268.436 58.7231 267.695 58.8599 267.103 59.1333C266.51 59.3953 266.066 59.7542 265.77 60.21C265.473 60.6543 265.325 61.1556 265.325 61.7139C265.325 62.1354 265.428 62.5171 265.633 62.8589C265.849 63.2007 266.168 63.5197 266.59 63.8159C267.011 64.1121 267.53 64.3913 268.145 64.6533C268.76 64.9154 269.472 65.1717 270.281 65.4224C271.637 65.8325 272.828 66.2939 273.853 66.8066C274.89 67.3193 275.756 67.8947 276.451 68.5327C277.146 69.1707 277.67 69.8942 278.023 70.7031C278.376 71.512 278.553 72.4292 278.553 73.4546C278.553 74.5369 278.342 75.5054 277.92 76.3599C277.499 77.2144 276.889 77.9378 276.092 78.5303C275.294 79.1227 274.343 79.5728 273.238 79.8804C272.133 80.188 270.896 80.3418 269.529 80.3418C268.299 80.3418 267.085 80.1823 265.889 79.8633C264.693 79.5329 263.605 79.0373 262.625 78.3765C261.657 77.7157 260.882 76.8726 260.301 75.8472C259.72 74.8218 259.429 73.6084 259.429 72.207H264.573C264.573 72.9818 264.693 73.6369 264.932 74.1724C265.171 74.7078 265.507 75.1408 265.94 75.4712C266.385 75.8016 266.909 76.0409 267.513 76.189C268.128 76.3371 268.8 76.4111 269.529 76.4111C270.418 76.4111 271.147 76.2858 271.717 76.0352C272.298 75.7845 272.725 75.437 272.999 74.9927C273.283 74.5483 273.426 74.047 273.426 73.4888ZM291.712 75.8301V67.5928C291.712 67.0003 291.615 66.4933 291.421 66.0718C291.228 65.6388 290.926 65.3027 290.516 65.0635C290.117 64.8242 289.598 64.7046 288.96 64.7046C288.414 64.7046 287.941 64.8014 287.542 64.9951C287.143 65.1774 286.836 65.4451 286.619 65.7983C286.403 66.1401 286.294 66.5446 286.294 67.0117H281.373C281.373 66.2256 281.555 65.4793 281.919 64.7729C282.284 64.0666 282.814 63.4456 283.509 62.9102C284.204 62.3633 285.03 61.936 285.987 61.6284C286.955 61.3208 288.038 61.167 289.234 61.167C290.669 61.167 291.945 61.4062 293.062 61.8848C294.179 62.3633 295.056 63.0811 295.694 64.0381C296.343 64.9951 296.668 66.1914 296.668 67.627V75.5396C296.668 76.5535 296.731 77.3853 296.856 78.0347C296.981 78.6727 297.164 79.231 297.403 79.7095V80H292.43C292.19 79.4987 292.008 78.8721 291.883 78.1201C291.769 77.3568 291.712 76.5934 291.712 75.8301ZM292.361 68.7378L292.396 71.5234H289.644C288.995 71.5234 288.431 71.5975 287.952 71.7456C287.474 71.8937 287.081 72.1045 286.773 72.3779C286.465 72.64 286.237 72.9476 286.089 73.3008C285.953 73.654 285.884 74.0413 285.884 74.4629C285.884 74.8844 285.981 75.2661 286.175 75.6079C286.368 75.9383 286.648 76.2004 287.012 76.394C287.377 76.5763 287.804 76.6675 288.294 76.6675C289.035 76.6675 289.678 76.5194 290.225 76.2231C290.772 75.9269 291.194 75.5623 291.49 75.1294C291.797 74.6965 291.957 74.2863 291.968 73.8989L293.267 75.9839C293.085 76.451 292.834 76.9352 292.515 77.4365C292.208 77.9378 291.814 78.4106 291.336 78.855C290.857 79.2879 290.282 79.6468 289.61 79.9316C288.938 80.2051 288.14 80.3418 287.217 80.3418C286.044 80.3418 284.979 80.1082 284.021 79.6411C283.076 79.1626 282.324 78.5075 281.766 77.6758C281.219 76.8327 280.945 75.8757 280.945 74.8047C280.945 73.8363 281.128 72.9761 281.492 72.2241C281.857 71.4722 282.392 70.8398 283.099 70.3271C283.816 69.8031 284.711 69.41 285.782 69.1479C286.853 68.8745 288.095 68.7378 289.507 68.7378H292.361ZM305.384 53.7329V80H300.462V53.7329H305.384ZM317.039 61.5088L309.007 70.6689L304.7 75.0269L302.906 71.4722L306.324 67.1313L311.126 61.5088H317.039ZM311.929 80L306.46 71.4551L309.861 68.4814L317.603 80H311.929ZM324.08 65.542V80H319.158V61.5088H323.79L324.08 65.542ZM329.651 61.3892L329.566 65.9521C329.327 65.918 329.036 65.8895 328.694 65.8667C328.364 65.8325 328.062 65.8154 327.789 65.8154C327.094 65.8154 326.49 65.9066 325.977 66.0889C325.476 66.2598 325.054 66.5161 324.712 66.8579C324.382 67.1997 324.131 67.6156 323.96 68.1055C323.801 68.5954 323.71 69.1536 323.687 69.7803L322.696 69.4727C322.696 68.2764 322.815 67.1769 323.055 66.1743C323.294 65.1603 323.641 64.2773 324.097 63.5254C324.564 62.7734 325.134 62.1924 325.806 61.7822C326.478 61.3721 327.247 61.167 328.113 61.167C328.387 61.167 328.666 61.1898 328.951 61.2354C329.236 61.2695 329.469 61.3208 329.651 61.3892Z" fill="#888888"/>
<rect x="92" y="181" width="1179" height="80" rx="13.3333" fill="#CCCCCC"/>
<rect x="107" y="196.333" width="208" height="49.3333" rx="4.66667" fill="#888888" stroke="#888888" stroke-width="4"/>
<path d="M171.823 213.167H177.792C178.958 213.167 179.972 213.34 180.833 213.687C181.694 214.035 182.358 214.549 182.823 215.229C183.295 215.91 183.531 216.75 183.531 217.75C183.531 218.618 183.396 219.344 183.125 219.927C182.854 220.51 182.476 220.993 181.99 221.375C181.51 221.75 180.951 222.059 180.312 222.302L179.115 222.979H174.104L174.083 220.156H177.792C178.257 220.156 178.642 220.073 178.948 219.906C179.253 219.74 179.483 219.503 179.635 219.198C179.795 218.885 179.875 218.514 179.875 218.083C179.875 217.646 179.795 217.271 179.635 216.958C179.476 216.646 179.24 216.406 178.927 216.24C178.622 216.073 178.243 215.99 177.792 215.99H175.479V228.333H171.823V213.167ZM180.125 228.333L176.771 221.625L180.646 221.604L184.042 228.177V228.333H180.125ZM191.031 228.542C190.115 228.542 189.295 228.399 188.573 228.115C187.851 227.823 187.24 227.424 186.74 226.917C186.247 226.41 185.868 225.826 185.604 225.167C185.347 224.507 185.219 223.809 185.219 223.073V222.677C185.219 221.851 185.333 221.087 185.562 220.385C185.792 219.677 186.132 219.059 186.583 218.531C187.035 218.003 187.601 217.594 188.281 217.302C188.962 217.003 189.753 216.854 190.656 216.854C191.455 216.854 192.17 216.983 192.802 217.24C193.434 217.497 193.969 217.865 194.406 218.344C194.851 218.823 195.187 219.403 195.417 220.083C195.653 220.764 195.771 221.528 195.771 222.375V223.802H186.562V221.604H192.344V221.333C192.351 220.958 192.285 220.639 192.146 220.375C192.014 220.111 191.819 219.91 191.562 219.771C191.306 219.632 190.993 219.562 190.625 219.562C190.243 219.562 189.927 219.646 189.677 219.812C189.434 219.979 189.243 220.208 189.104 220.5C188.972 220.785 188.878 221.115 188.823 221.49C188.767 221.865 188.74 222.26 188.74 222.677V223.073C188.74 223.49 188.795 223.868 188.906 224.208C189.024 224.549 189.191 224.84 189.406 225.083C189.628 225.319 189.892 225.503 190.198 225.635C190.51 225.767 190.865 225.833 191.26 225.833C191.74 225.833 192.212 225.743 192.677 225.562C193.142 225.382 193.542 225.083 193.875 224.667L195.469 226.562C195.24 226.889 194.913 227.205 194.49 227.51C194.073 227.816 193.573 228.066 192.99 228.26C192.406 228.448 191.753 228.542 191.031 228.542ZM203.052 225.5V220.854C203.052 220.535 203.007 220.26 202.917 220.031C202.826 219.802 202.684 219.625 202.49 219.5C202.295 219.368 202.035 219.302 201.708 219.302C201.444 219.302 201.219 219.347 201.031 219.437C200.844 219.528 200.701 219.663 200.604 219.844C200.507 220.024 200.458 220.253 200.458 220.531H196.948C196.948 220.01 197.062 219.528 197.292 219.083C197.528 218.632 197.861 218.24 198.292 217.906C198.729 217.573 199.25 217.316 199.854 217.135C200.465 216.948 201.146 216.854 201.896 216.854C202.792 216.854 203.59 217.003 204.292 217.302C205 217.601 205.559 218.049 205.969 218.646C206.378 219.236 206.583 219.979 206.583 220.875V225.49C206.583 226.226 206.625 226.785 206.708 227.167C206.792 227.542 206.91 227.872 207.062 228.156V228.333H203.542C203.375 227.986 203.25 227.562 203.167 227.062C203.09 226.556 203.052 226.035 203.052 225.5ZM203.479 221.448L203.5 223.323H201.948C201.622 223.323 201.344 223.368 201.115 223.458C200.892 223.549 200.712 223.674 200.573 223.833C200.441 223.986 200.344 224.16 200.281 224.354C200.226 224.549 200.198 224.753 200.198 224.969C200.198 225.177 200.247 225.365 200.344 225.531C200.448 225.691 200.587 225.816 200.76 225.906C200.934 225.997 201.128 226.042 201.344 226.042C201.733 226.042 202.062 225.969 202.333 225.823C202.611 225.67 202.823 225.486 202.969 225.271C203.115 225.056 203.187 224.854 203.187 224.667L203.958 226.104C203.819 226.382 203.66 226.663 203.479 226.948C203.306 227.233 203.087 227.497 202.823 227.74C202.566 227.976 202.25 228.17 201.875 228.323C201.5 228.469 201.045 228.542 200.51 228.542C199.816 228.542 199.177 228.399 198.594 228.115C198.017 227.83 197.556 227.434 197.208 226.927C196.861 226.413 196.687 225.823 196.687 225.156C196.687 224.573 196.792 224.052 197 223.594C197.215 223.135 197.538 222.747 197.969 222.427C198.399 222.108 198.948 221.865 199.615 221.698C200.281 221.531 201.066 221.448 201.969 221.448H203.479ZM213.292 225.833C213.618 225.833 213.896 225.774 214.125 225.656C214.361 225.531 214.538 225.358 214.656 225.135C214.781 224.906 214.84 224.632 214.833 224.312H218.135C218.142 225.16 217.934 225.903 217.51 226.542C217.094 227.174 216.524 227.667 215.802 228.021C215.087 228.368 214.278 228.542 213.375 228.542C212.493 228.542 211.722 228.399 211.062 228.115C210.403 227.823 209.851 227.42 209.406 226.906C208.969 226.385 208.639 225.778 208.417 225.083C208.201 224.389 208.094 223.635 208.094 222.823V222.583C208.094 221.771 208.201 221.017 208.417 220.323C208.639 219.622 208.969 219.014 209.406 218.5C209.851 217.979 210.399 217.576 211.052 217.292C211.712 217 212.479 216.854 213.354 216.854C214.292 216.854 215.118 217.031 215.833 217.385C216.556 217.74 217.122 218.253 217.531 218.927C217.941 219.601 218.142 220.417 218.135 221.375H214.833C214.84 221.035 214.788 220.729 214.677 220.458C214.566 220.187 214.392 219.972 214.156 219.812C213.927 219.646 213.632 219.562 213.271 219.562C212.91 219.562 212.618 219.642 212.396 219.802C212.174 219.962 212.003 220.184 211.885 220.469C211.774 220.747 211.698 221.066 211.656 221.427C211.622 221.788 211.604 222.174 211.604 222.583V222.823C211.604 223.24 211.622 223.632 211.656 224C211.698 224.361 211.778 224.681 211.896 224.958C212.014 225.229 212.184 225.444 212.406 225.604C212.628 225.757 212.924 225.833 213.292 225.833ZM225.573 217.062V219.5H218.781V217.062H225.573ZM220.208 214.26H223.719V224.656C223.719 224.955 223.753 225.187 223.823 225.354C223.892 225.514 224.01 225.628 224.177 225.698C224.351 225.76 224.58 225.792 224.865 225.792C225.066 225.792 225.233 225.788 225.365 225.781C225.497 225.767 225.622 225.75 225.74 225.729V228.24C225.441 228.337 225.128 228.41 224.802 228.458C224.476 228.514 224.128 228.542 223.76 228.542C223.01 228.542 222.368 228.424 221.833 228.187C221.306 227.951 220.903 227.58 220.625 227.073C220.347 226.566 220.208 225.906 220.208 225.094V214.26ZM233.167 223.573V213.167H236.812V223.573C236.812 224.587 236.58 225.465 236.115 226.208C235.656 226.951 235.031 227.528 234.24 227.937C233.455 228.34 232.573 228.542 231.594 228.542C230.58 228.542 229.677 228.372 228.885 228.031C228.101 227.691 227.483 227.167 227.031 226.458C226.587 225.75 226.365 224.847 226.365 223.75H230.031C230.031 224.264 230.09 224.667 230.208 224.958C230.326 225.243 230.5 225.444 230.729 225.562C230.965 225.674 231.253 225.729 231.594 225.729C231.927 225.729 232.208 225.646 232.437 225.479C232.674 225.306 232.854 225.059 232.979 224.74C233.104 224.413 233.167 224.024 233.167 223.573ZM246.948 224.302C246.948 224.066 246.913 223.854 246.844 223.667C246.774 223.472 246.646 223.292 246.458 223.125C246.271 222.958 246 222.792 245.646 222.625C245.299 222.451 244.84 222.271 244.271 222.083C243.604 221.861 242.962 221.611 242.344 221.333C241.726 221.049 241.174 220.719 240.687 220.344C240.201 219.962 239.816 219.517 239.531 219.01C239.247 218.497 239.104 217.899 239.104 217.219C239.104 216.566 239.25 215.979 239.542 215.458C239.833 214.931 240.24 214.483 240.76 214.115C241.288 213.74 241.906 213.455 242.615 213.26C243.323 213.059 244.097 212.958 244.937 212.958C246.049 212.958 247.028 213.153 247.875 213.542C248.729 213.924 249.396 214.469 249.875 215.177C250.361 215.878 250.604 216.708 250.604 217.667H246.969C246.969 217.285 246.889 216.948 246.729 216.656C246.576 216.365 246.344 216.135 246.031 215.969C245.719 215.802 245.326 215.719 244.854 215.719C244.396 215.719 244.01 215.788 243.698 215.927C243.385 216.066 243.149 216.253 242.99 216.49C242.83 216.719 242.75 216.972 242.75 217.25C242.75 217.479 242.812 217.687 242.937 217.875C243.069 218.056 243.253 218.226 243.49 218.385C243.733 218.545 244.024 218.698 244.365 218.844C244.712 218.99 245.101 219.132 245.531 219.271C246.337 219.528 247.052 219.816 247.677 220.135C248.309 220.448 248.84 220.806 249.271 221.208C249.708 221.604 250.038 222.056 250.26 222.562C250.49 223.069 250.604 223.642 250.604 224.281C250.604 224.962 250.472 225.566 250.208 226.094C249.944 226.622 249.566 227.069 249.073 227.437C248.58 227.799 247.99 228.073 247.302 228.26C246.615 228.448 245.847 228.542 245 228.542C244.222 228.542 243.455 228.444 242.698 228.25C241.948 228.049 241.267 227.743 240.656 227.333C240.045 226.917 239.556 226.385 239.187 225.74C238.826 225.087 238.646 224.312 238.646 223.417H242.312C242.312 223.861 242.372 224.236 242.49 224.542C242.608 224.847 242.781 225.094 243.01 225.281C243.24 225.462 243.521 225.594 243.854 225.677C244.187 225.753 244.569 225.792 245 225.792C245.465 225.792 245.84 225.726 246.125 225.594C246.41 225.455 246.618 225.274 246.75 225.052C246.882 224.823 246.948 224.573 246.948 224.302Z" fill="white"/>
<rect x="339" y="196.333" width="208" height="49.3333" rx="4.66667" fill="#888888" stroke="#888888" stroke-width="4"/>
<path d="M418.844 213.167V228.333H415.198L409.833 218.896V228.333H406.177V213.167H409.833L415.198 222.604V213.167H418.844ZM420.552 222.812V222.594C420.552 221.767 420.67 221.007 420.906 220.312C421.142 219.611 421.49 219.003 421.948 218.49C422.406 217.976 422.972 217.576 423.646 217.292C424.319 217 425.097 216.854 425.979 216.854C426.868 216.854 427.649 217 428.323 217.292C429.003 217.576 429.573 217.976 430.031 218.49C430.49 219.003 430.837 219.611 431.073 220.312C431.309 221.007 431.427 221.767 431.427 222.594V222.812C431.427 223.632 431.309 224.392 431.073 225.094C430.837 225.788 430.49 226.396 430.031 226.917C429.573 227.431 429.007 227.83 428.333 228.115C427.66 228.399 426.882 228.542 426 228.542C425.118 228.542 424.337 228.399 423.656 228.115C422.976 227.83 422.406 227.431 421.948 226.917C421.49 226.396 421.142 225.788 420.906 225.094C420.67 224.392 420.552 223.632 420.552 222.812ZM424.062 222.594V222.812C424.062 223.236 424.094 223.632 424.156 224C424.219 224.368 424.323 224.691 424.469 224.969C424.615 225.24 424.812 225.451 425.062 225.604C425.312 225.757 425.625 225.833 426 225.833C426.368 225.833 426.674 225.757 426.917 225.604C427.167 225.451 427.365 225.24 427.51 224.969C427.656 224.691 427.76 224.368 427.823 224C427.885 223.632 427.917 223.236 427.917 222.812V222.594C427.917 222.184 427.885 221.799 427.823 221.437C427.76 221.069 427.656 220.747 427.51 220.469C427.365 220.184 427.167 219.962 426.917 219.802C426.667 219.642 426.354 219.562 425.979 219.562C425.611 219.562 425.302 219.642 425.052 219.802C424.809 219.962 424.615 220.184 424.469 220.469C424.323 220.747 424.219 221.069 424.156 221.437C424.094 221.799 424.062 222.184 424.062 222.594ZM439.469 225.75V212.333H443V228.333H439.833L439.469 225.75ZM432.552 222.833V222.615C432.552 221.76 432.646 220.983 432.833 220.281C433.021 219.573 433.299 218.965 433.667 218.458C434.035 217.944 434.493 217.549 435.042 217.271C435.59 216.993 436.222 216.854 436.938 216.854C437.576 216.854 438.135 217.003 438.615 217.302C439.094 217.594 439.503 218.003 439.844 218.531C440.184 219.059 440.462 219.677 440.677 220.385C440.892 221.087 441.056 221.844 441.167 222.656V222.917C441.056 223.681 440.892 224.403 440.677 225.083C440.462 225.757 440.184 226.354 439.844 226.875C439.503 227.396 439.09 227.806 438.604 228.104C438.125 228.396 437.563 228.542 436.917 228.542C436.201 228.542 435.569 228.399 435.021 228.115C434.479 227.83 434.024 227.431 433.656 226.917C433.295 226.403 433.021 225.799 432.833 225.104C432.646 224.41 432.552 223.653 432.552 222.833ZM436.063 222.615V222.833C436.063 223.257 436.09 223.649 436.146 224.01C436.201 224.372 436.295 224.691 436.427 224.969C436.566 225.24 436.747 225.451 436.969 225.604C437.198 225.757 437.479 225.833 437.813 225.833C438.264 225.833 438.635 225.726 438.927 225.51C439.226 225.295 439.444 224.99 439.583 224.594C439.729 224.198 439.792 223.733 439.771 223.198V222.375C439.785 221.917 439.753 221.514 439.677 221.167C439.601 220.812 439.479 220.517 439.313 220.281C439.153 220.045 438.948 219.868 438.698 219.75C438.455 219.625 438.167 219.562 437.833 219.562C437.507 219.562 437.229 219.639 437 219.792C436.778 219.944 436.597 220.16 436.458 220.437C436.319 220.708 436.219 221.031 436.156 221.406C436.094 221.774 436.063 222.177 436.063 222.615ZM450.448 228.542C449.531 228.542 448.712 228.399 447.99 228.115C447.267 227.823 446.656 227.424 446.156 226.917C445.663 226.41 445.285 225.826 445.021 225.167C444.764 224.507 444.635 223.809 444.635 223.073V222.677C444.635 221.851 444.75 221.087 444.979 220.385C445.208 219.677 445.549 219.059 446 218.531C446.451 218.003 447.017 217.594 447.698 217.302C448.378 217.003 449.17 216.854 450.073 216.854C450.872 216.854 451.587 216.983 452.219 217.24C452.851 217.497 453.385 217.865 453.823 218.344C454.267 218.823 454.604 219.403 454.833 220.083C455.069 220.764 455.188 221.528 455.188 222.375V223.802H445.979V221.604H451.76V221.333C451.767 220.958 451.701 220.639 451.563 220.375C451.431 220.111 451.236 219.91 450.979 219.771C450.722 219.632 450.41 219.562 450.042 219.562C449.66 219.562 449.344 219.646 449.094 219.812C448.851 219.979 448.66 220.208 448.521 220.5C448.389 220.785 448.295 221.115 448.24 221.49C448.184 221.865 448.156 222.26 448.156 222.677V223.073C448.156 223.49 448.212 223.868 448.323 224.208C448.441 224.549 448.608 224.84 448.823 225.083C449.045 225.319 449.309 225.503 449.615 225.635C449.927 225.767 450.281 225.833 450.677 225.833C451.156 225.833 451.628 225.743 452.094 225.562C452.559 225.382 452.958 225.083 453.292 224.667L454.885 226.562C454.656 226.889 454.33 227.205 453.906 227.51C453.49 227.816 452.99 228.066 452.406 228.26C451.823 228.448 451.17 228.542 450.448 228.542ZM462.813 223.573V213.167H466.458V223.573C466.458 224.587 466.226 225.465 465.76 226.208C465.302 226.951 464.677 227.528 463.885 227.937C463.101 228.34 462.219 228.542 461.24 228.542C460.226 228.542 459.323 228.372 458.531 228.031C457.747 227.691 457.128 227.167 456.677 226.458C456.233 225.75 456.01 224.847 456.01 223.75H459.677C459.677 224.264 459.736 224.667 459.854 224.958C459.972 225.243 460.146 225.444 460.375 225.562C460.611 225.674 460.899 225.729 461.24 225.729C461.573 225.729 461.854 225.646 462.083 225.479C462.319 225.306 462.5 225.059 462.625 224.74C462.75 224.413 462.813 224.024 462.813 223.573ZM476.594 224.302C476.594 224.066 476.559 223.854 476.49 223.667C476.42 223.472 476.292 223.292 476.104 223.125C475.917 222.958 475.646 222.792 475.292 222.625C474.944 222.451 474.486 222.271 473.917 222.083C473.25 221.861 472.608 221.611 471.99 221.333C471.372 221.049 470.819 220.719 470.333 220.344C469.847 219.962 469.462 219.517 469.177 219.01C468.892 218.497 468.75 217.899 468.75 217.219C468.75 216.566 468.896 215.979 469.188 215.458C469.479 214.931 469.885 214.483 470.406 214.115C470.934 213.74 471.552 213.455 472.26 213.26C472.969 213.059 473.743 212.958 474.583 212.958C475.694 212.958 476.674 213.153 477.521 213.542C478.375 213.924 479.042 214.469 479.521 215.177C480.007 215.878 480.25 216.708 480.25 217.667H476.615C476.615 217.285 476.535 216.948 476.375 216.656C476.222 216.365 475.99 216.135 475.677 215.969C475.365 215.802 474.972 215.719 474.5 215.719C474.042 215.719 473.656 215.788 473.344 215.927C473.031 216.066 472.795 216.253 472.635 216.49C472.476 216.719 472.396 216.972 472.396 217.25C472.396 217.479 472.458 217.687 472.583 217.875C472.715 218.056 472.899 218.226 473.135 218.385C473.378 218.545 473.67 218.698 474.01 218.844C474.358 218.99 474.747 219.132 475.177 219.271C475.983 219.528 476.698 219.816 477.323 220.135C477.955 220.448 478.486 220.806 478.917 221.208C479.354 221.604 479.684 222.056 479.906 222.562C480.135 223.069 480.25 223.642 480.25 224.281C480.25 224.962 480.118 225.566 479.854 226.094C479.59 226.622 479.212 227.069 478.719 227.437C478.226 227.799 477.635 228.073 476.948 228.26C476.26 228.448 475.493 228.542 474.646 228.542C473.868 228.542 473.101 228.444 472.344 228.25C471.594 228.049 470.913 227.743 470.302 227.333C469.691 226.917 469.201 226.385 468.833 225.74C468.472 225.087 468.292 224.312 468.292 223.417H471.958C471.958 223.861 472.017 224.236 472.135 224.542C472.253 224.847 472.427 225.094 472.656 225.281C472.885 225.462 473.167 225.594 473.5 225.677C473.833 225.753 474.215 225.792 474.646 225.792C475.111 225.792 475.486 225.726 475.771 225.594C476.056 225.455 476.264 225.274 476.396 225.052C476.528 224.823 476.594 224.573 476.594 224.302Z" fill="white"/>
<rect x="571" y="196.333" width="208" height="49.3333" rx="4.66667" fill="#888888" stroke="#888888" stroke-width="4"/>
<path d="M635.75 225.521V228.333H627.667V225.521H635.75ZM628.969 213.167V228.333H625.313V213.167H628.969ZM634.708 219.187V221.906H627.667V219.187H634.708ZM635.781 213.167V215.99H627.667V213.167H635.781ZM640.063 217.062L641.646 220.167L643.281 217.062H646.927L643.969 222.552L647.083 228.333H643.406L641.646 225L639.896 228.333H636.219L639.333 222.552L636.385 217.062H640.063ZM651.625 219.229V232.667H648.115V217.062H651.385L651.625 219.229ZM658.542 222.562V222.781C658.542 223.601 658.448 224.361 658.26 225.062C658.073 225.764 657.795 226.375 657.427 226.896C657.059 227.417 656.601 227.823 656.052 228.115C655.51 228.399 654.882 228.542 654.167 228.542C653.493 228.542 652.913 228.392 652.427 228.094C651.941 227.795 651.535 227.382 651.208 226.854C650.882 226.326 650.618 225.722 650.417 225.042C650.215 224.361 650.056 223.642 649.938 222.885V222.604C650.056 221.792 650.215 221.038 650.417 220.344C650.618 219.642 650.882 219.031 651.208 218.51C651.535 217.99 651.938 217.583 652.417 217.292C652.903 217 653.483 216.854 654.156 216.854C654.872 216.854 655.5 216.99 656.042 217.26C656.59 217.531 657.049 217.92 657.417 218.427C657.792 218.927 658.073 219.528 658.26 220.229C658.448 220.931 658.542 221.708 658.542 222.562ZM655.031 222.781V222.562C655.031 222.125 655 221.726 654.938 221.365C654.875 220.997 654.774 220.677 654.635 220.406C654.503 220.135 654.326 219.927 654.104 219.781C653.882 219.635 653.608 219.562 653.281 219.562C652.906 219.562 652.59 219.622 652.333 219.74C652.083 219.851 651.882 220.024 651.729 220.26C651.583 220.49 651.479 220.778 651.417 221.125C651.361 221.465 651.337 221.865 651.344 222.323V223.177C651.33 223.705 651.382 224.17 651.5 224.573C651.618 224.969 651.823 225.278 652.115 225.5C652.406 225.722 652.802 225.833 653.302 225.833C653.635 225.833 653.913 225.757 654.135 225.604C654.358 225.444 654.535 225.226 654.667 224.948C654.799 224.663 654.892 224.337 654.948 223.969C655.003 223.601 655.031 223.205 655.031 222.781ZM663.646 219.854V228.333H660.135V217.062H663.417L663.646 219.854ZM666.979 216.979L666.917 220.24C666.778 220.226 666.59 220.208 666.354 220.187C666.118 220.167 665.92 220.156 665.76 220.156C665.351 220.156 664.997 220.205 664.698 220.302C664.406 220.392 664.163 220.531 663.969 220.719C663.781 220.899 663.642 221.128 663.552 221.406C663.469 221.684 663.431 222.007 663.438 222.375L662.802 221.958C662.802 221.201 662.875 220.514 663.021 219.896C663.174 219.271 663.389 218.733 663.667 218.281C663.944 217.823 664.281 217.472 664.677 217.229C665.073 216.979 665.517 216.854 666.01 216.854C666.184 216.854 666.354 216.865 666.521 216.885C666.694 216.906 666.847 216.937 666.979 216.979ZM673.438 228.542C672.521 228.542 671.701 228.399 670.979 228.115C670.257 227.823 669.646 227.424 669.146 226.917C668.653 226.41 668.274 225.826 668.01 225.167C667.753 224.507 667.625 223.809 667.625 223.073V222.677C667.625 221.851 667.74 221.087 667.969 220.385C668.198 219.677 668.538 219.059 668.99 218.531C669.441 218.003 670.007 217.594 670.688 217.302C671.368 217.003 672.16 216.854 673.063 216.854C673.861 216.854 674.576 216.983 675.208 217.24C675.84 217.497 676.375 217.865 676.813 218.344C677.257 218.823 677.594 219.403 677.823 220.083C678.059 220.764 678.177 221.528 678.177 222.375V223.802H668.969V221.604H674.75V221.333C674.757 220.958 674.691 220.639 674.552 220.375C674.42 220.111 674.226 219.91 673.969 219.771C673.712 219.632 673.399 219.562 673.031 219.562C672.649 219.562 672.333 219.646 672.083 219.812C671.84 219.979 671.649 220.208 671.51 220.5C671.378 220.785 671.285 221.115 671.229 221.49C671.174 221.865 671.146 222.26 671.146 222.677V223.073C671.146 223.49 671.201 223.868 671.313 224.208C671.431 224.549 671.597 224.84 671.813 225.083C672.035 225.319 672.299 225.503 672.604 225.635C672.917 225.767 673.271 225.833 673.667 225.833C674.146 225.833 674.618 225.743 675.083 225.562C675.549 225.382 675.948 225.083 676.281 224.667L677.875 226.562C677.646 226.889 677.319 227.205 676.896 227.51C676.479 227.816 675.979 228.066 675.396 228.26C674.813 228.448 674.16 228.542 673.438 228.542ZM685.51 225.167C685.51 224.972 685.444 224.806 685.313 224.667C685.188 224.521 684.965 224.389 684.646 224.271C684.326 224.146 683.878 224.021 683.302 223.896C682.753 223.778 682.236 223.622 681.75 223.427C681.271 223.233 680.851 222.997 680.49 222.719C680.128 222.441 679.844 222.111 679.635 221.729C679.434 221.347 679.333 220.91 679.333 220.417C679.333 219.937 679.434 219.486 679.635 219.062C679.844 218.632 680.146 218.253 680.542 217.927C680.944 217.594 681.434 217.333 682.01 217.146C682.587 216.951 683.243 216.854 683.979 216.854C684.993 216.854 685.868 217.01 686.604 217.323C687.34 217.628 687.906 218.059 688.302 218.615C688.705 219.163 688.906 219.799 688.906 220.521H685.396C685.396 220.236 685.347 219.993 685.25 219.792C685.16 219.59 685.01 219.437 684.802 219.333C684.594 219.222 684.316 219.167 683.969 219.167C683.726 219.167 683.503 219.212 683.302 219.302C683.108 219.392 682.951 219.517 682.833 219.677C682.715 219.837 682.656 220.024 682.656 220.24C682.656 220.392 682.691 220.531 682.76 220.656C682.837 220.774 682.951 220.885 683.104 220.99C683.257 221.087 683.451 221.177 683.688 221.26C683.924 221.337 684.208 221.406 684.542 221.469C685.299 221.608 686.007 221.806 686.667 222.062C687.326 222.319 687.861 222.684 688.271 223.156C688.688 223.628 688.896 224.264 688.896 225.062C688.896 225.562 688.781 226.024 688.552 226.448C688.323 226.865 687.993 227.233 687.563 227.552C687.132 227.865 686.615 228.108 686.01 228.281C685.406 228.455 684.726 228.542 683.969 228.542C682.892 228.542 681.983 228.351 681.24 227.969C680.497 227.58 679.934 227.094 679.552 226.51C679.177 225.92 678.99 225.323 678.99 224.719H682.26C682.274 225.066 682.358 225.351 682.51 225.573C682.67 225.795 682.882 225.958 683.146 226.062C683.41 226.167 683.715 226.219 684.063 226.219C684.382 226.219 684.646 226.174 684.854 226.083C685.069 225.993 685.233 225.872 685.344 225.719C685.455 225.559 685.51 225.375 685.51 225.167ZM696.448 225.167C696.448 224.972 696.382 224.806 696.25 224.667C696.125 224.521 695.903 224.389 695.583 224.271C695.264 224.146 694.816 224.021 694.24 223.896C693.691 223.778 693.174 223.622 692.688 223.427C692.208 223.233 691.788 222.997 691.427 222.719C691.066 222.441 690.781 222.111 690.573 221.729C690.372 221.347 690.271 220.91 690.271 220.417C690.271 219.937 690.372 219.486 690.573 219.062C690.781 218.632 691.083 218.253 691.479 217.927C691.882 217.594 692.372 217.333 692.948 217.146C693.524 216.951 694.181 216.854 694.917 216.854C695.931 216.854 696.806 217.01 697.542 217.323C698.278 217.628 698.844 218.059 699.24 218.615C699.642 219.163 699.844 219.799 699.844 220.521H696.333C696.333 220.236 696.285 219.993 696.188 219.792C696.097 219.59 695.948 219.437 695.74 219.333C695.531 219.222 695.253 219.167 694.906 219.167C694.663 219.167 694.441 219.212 694.24 219.302C694.045 219.392 693.889 219.517 693.771 219.677C693.653 219.837 693.594 220.024 693.594 220.24C693.594 220.392 693.628 220.531 693.698 220.656C693.774 220.774 693.889 220.885 694.042 220.99C694.194 221.087 694.389 221.177 694.625 221.26C694.861 221.337 695.146 221.406 695.479 221.469C696.236 221.608 696.944 221.806 697.604 222.062C698.264 222.319 698.799 222.684 699.208 223.156C699.625 223.628 699.833 224.264 699.833 225.062C699.833 225.562 699.719 226.024 699.49 226.448C699.26 226.865 698.931 227.233 698.5 227.552C698.069 227.865 697.552 228.108 696.948 228.281C696.344 228.455 695.663 228.542 694.906 228.542C693.83 228.542 692.92 228.351 692.177 227.969C691.434 227.58 690.872 227.094 690.49 226.51C690.115 225.92 689.927 225.323 689.927 224.719H693.198C693.212 225.066 693.295 225.351 693.448 225.573C693.608 225.795 693.819 225.958 694.083 226.062C694.347 226.167 694.653 226.219 695 226.219C695.319 226.219 695.583 226.174 695.792 226.083C696.007 225.993 696.17 225.872 696.281 225.719C696.392 225.559 696.448 225.375 696.448 225.167ZM707.677 223.573V213.167H711.323V223.573C711.323 224.587 711.09 225.465 710.625 226.208C710.167 226.951 709.542 227.528 708.75 227.937C707.965 228.34 707.083 228.542 706.104 228.542C705.09 228.542 704.188 228.372 703.396 228.031C702.611 227.691 701.993 227.167 701.542 226.458C701.097 225.75 700.875 224.847 700.875 223.75H704.542C704.542 224.264 704.601 224.667 704.719 224.958C704.837 225.243 705.01 225.444 705.24 225.562C705.476 225.674 705.764 225.729 706.104 225.729C706.438 225.729 706.719 225.646 706.948 225.479C707.184 225.306 707.365 225.059 707.49 224.74C707.615 224.413 707.677 224.024 707.677 223.573ZM721.458 224.302C721.458 224.066 721.424 223.854 721.354 223.667C721.285 223.472 721.156 223.292 720.969 223.125C720.781 222.958 720.51 222.792 720.156 222.625C719.809 222.451 719.351 222.271 718.781 222.083C718.115 221.861 717.472 221.611 716.854 221.333C716.236 221.049 715.684 220.719 715.198 220.344C714.712 219.962 714.326 219.517 714.042 219.01C713.757 218.497 713.615 217.899 713.615 217.219C713.615 216.566 713.76 215.979 714.052 215.458C714.344 214.931 714.75 214.483 715.271 214.115C715.799 213.74 716.417 213.455 717.125 213.26C717.833 213.059 718.608 212.958 719.448 212.958C720.559 212.958 721.538 213.153 722.385 213.542C723.24 213.924 723.906 214.469 724.385 215.177C724.872 215.878 725.115 216.708 725.115 217.667H721.479C721.479 217.285 721.399 216.948 721.24 216.656C721.087 216.365 720.854 216.135 720.542 215.969C720.229 215.802 719.837 215.719 719.365 215.719C718.906 215.719 718.521 215.788 718.208 215.927C717.896 216.066 717.66 216.253 717.5 216.49C717.34 216.719 717.26 216.972 717.26 217.25C717.26 217.479 717.323 217.687 717.448 217.875C717.58 218.056 717.764 218.226 718 218.385C718.243 218.545 718.535 218.698 718.875 218.844C719.222 218.99 719.611 219.132 720.042 219.271C720.847 219.528 721.563 219.816 722.188 220.135C722.819 220.448 723.351 220.806 723.781 221.208C724.219 221.604 724.549 222.056 724.771 222.562C725 223.069 725.115 223.642 725.115 224.281C725.115 224.962 724.983 225.566 724.719 226.094C724.455 226.622 724.076 227.069 723.583 227.437C723.09 227.799 722.5 228.073 721.813 228.26C721.125 228.448 720.358 228.542 719.51 228.542C718.733 228.542 717.965 228.444 717.208 228.25C716.458 228.049 715.778 227.743 715.167 227.333C714.556 226.917 714.066 226.385 713.698 225.74C713.337 225.087 713.156 224.312 713.156 223.417H716.823C716.823 223.861 716.882 224.236 717 224.542C717.118 224.847 717.292 225.094 717.521 225.281C717.75 225.462 718.031 225.594 718.365 225.677C718.698 225.753 719.08 225.792 719.51 225.792C719.976 225.792 720.351 225.726 720.635 225.594C720.92 225.455 721.128 225.274 721.26 225.052C721.392 224.823 721.458 224.573 721.458 224.302Z" fill="white"/>
<rect x="803" y="196.333" width="208" height="49.3333" rx="4.66667" fill="#888888" stroke="#888888" stroke-width="4"/>
<path d="M862.656 213.167H865.635L869.021 223.719L872.406 213.167H875.385L870.229 228.333H867.813L862.656 213.167ZM860.844 213.167H863.927L864.5 224.792V228.333H860.844V213.167ZM874.115 213.167H877.208V228.333H873.542V224.792L874.115 213.167ZM878.948 222.812V222.594C878.948 221.767 879.066 221.007 879.302 220.312C879.538 219.611 879.885 219.003 880.344 218.49C880.802 217.976 881.368 217.576 882.042 217.292C882.715 217 883.493 216.854 884.375 216.854C885.264 216.854 886.045 217 886.719 217.292C887.399 217.576 887.969 217.976 888.427 218.49C888.885 219.003 889.233 219.611 889.469 220.312C889.705 221.007 889.823 221.767 889.823 222.594V222.812C889.823 223.632 889.705 224.392 889.469 225.094C889.233 225.788 888.885 226.396 888.427 226.917C887.969 227.431 887.403 227.83 886.729 228.115C886.056 228.399 885.278 228.542 884.396 228.542C883.514 228.542 882.733 228.399 882.052 228.115C881.372 227.83 880.802 227.431 880.344 226.917C879.885 226.396 879.538 225.788 879.302 225.094C879.066 224.392 878.948 223.632 878.948 222.812ZM882.458 222.594V222.812C882.458 223.236 882.49 223.632 882.552 224C882.615 224.368 882.719 224.691 882.865 224.969C883.01 225.24 883.208 225.451 883.458 225.604C883.708 225.757 884.021 225.833 884.396 225.833C884.764 225.833 885.069 225.757 885.313 225.604C885.563 225.451 885.76 225.24 885.906 224.969C886.052 224.691 886.156 224.368 886.219 224C886.281 223.632 886.313 223.236 886.313 222.812V222.594C886.313 222.184 886.281 221.799 886.219 221.437C886.156 221.069 886.052 220.747 885.906 220.469C885.76 220.184 885.563 219.962 885.313 219.802C885.063 219.642 884.75 219.562 884.375 219.562C884.007 219.562 883.698 219.642 883.448 219.802C883.205 219.962 883.01 220.184 882.865 220.469C882.719 220.747 882.615 221.069 882.552 221.437C882.49 221.799 882.458 222.184 882.458 222.594ZM894.833 219.469V228.333H891.323V217.062H894.615L894.833 219.469ZM894.417 222.312L893.594 222.333C893.594 221.472 893.698 220.705 893.906 220.031C894.115 219.351 894.41 218.774 894.792 218.302C895.174 217.83 895.628 217.472 896.156 217.229C896.691 216.979 897.285 216.854 897.938 216.854C898.458 216.854 898.934 216.931 899.365 217.083C899.802 217.236 900.177 217.483 900.49 217.823C900.809 218.163 901.052 218.615 901.219 219.177C901.392 219.733 901.479 220.42 901.479 221.24V228.333H897.948V221.229C897.948 220.778 897.885 220.434 897.76 220.198C897.635 219.955 897.455 219.788 897.219 219.698C896.983 219.608 896.694 219.562 896.354 219.562C895.993 219.562 895.688 219.632 895.438 219.771C895.188 219.91 894.986 220.104 894.833 220.354C894.688 220.597 894.58 220.885 894.51 221.219C894.448 221.552 894.417 221.917 894.417 222.312ZM910.51 217.062H913.698V227.896C913.698 228.937 913.458 229.819 912.979 230.542C912.5 231.271 911.83 231.823 910.969 232.198C910.115 232.58 909.115 232.771 907.969 232.771C907.462 232.771 906.944 232.705 906.417 232.573C905.889 232.448 905.396 232.26 904.938 232.01C904.479 231.76 904.094 231.451 903.781 231.083L905.25 229.021C905.535 229.34 905.892 229.611 906.323 229.833C906.753 230.062 907.26 230.177 907.844 230.177C908.351 230.177 908.774 230.087 909.115 229.906C909.462 229.726 909.726 229.462 909.906 229.115C910.087 228.774 910.177 228.361 910.177 227.875V219.729L910.51 217.062ZM903.021 222.833V222.615C903.021 221.76 903.125 220.983 903.333 220.281C903.549 219.573 903.854 218.965 904.25 218.458C904.653 217.944 905.139 217.549 905.708 217.271C906.278 216.993 906.92 216.854 907.635 216.854C908.406 216.854 909.038 217.003 909.531 217.302C910.031 217.594 910.431 218.003 910.729 218.531C911.035 219.059 911.271 219.677 911.438 220.385C911.611 221.087 911.757 221.844 911.875 222.656V222.917C911.757 223.681 911.594 224.403 911.385 225.083C911.184 225.757 910.92 226.354 910.594 226.875C910.267 227.396 909.858 227.806 909.365 228.104C908.878 228.396 908.295 228.542 907.615 228.542C906.906 228.542 906.267 228.399 905.698 228.115C905.135 227.83 904.653 227.431 904.25 226.917C903.854 226.403 903.549 225.799 903.333 225.104C903.125 224.41 903.021 223.653 903.021 222.833ZM906.531 222.615V222.833C906.531 223.257 906.569 223.649 906.646 224.01C906.729 224.372 906.854 224.691 907.021 224.969C907.188 225.24 907.392 225.451 907.635 225.604C907.885 225.757 908.177 225.833 908.51 225.833C909.017 225.833 909.427 225.726 909.74 225.51C910.052 225.295 910.278 224.99 910.417 224.594C910.556 224.198 910.615 223.733 910.594 223.198V222.375C910.608 221.917 910.576 221.514 910.5 221.167C910.424 220.812 910.302 220.517 910.135 220.281C909.976 220.045 909.76 219.868 909.49 219.75C909.226 219.625 908.906 219.562 908.531 219.562C908.205 219.562 907.917 219.639 907.667 219.792C907.417 219.944 907.208 220.16 907.042 220.437C906.875 220.708 906.747 221.031 906.656 221.406C906.573 221.774 906.531 222.177 906.531 222.615ZM915.281 222.812V222.594C915.281 221.767 915.399 221.007 915.635 220.312C915.872 219.611 916.219 219.003 916.677 218.49C917.135 217.976 917.701 217.576 918.375 217.292C919.049 217 919.826 216.854 920.708 216.854C921.597 216.854 922.378 217 923.052 217.292C923.733 217.576 924.302 217.976 924.76 218.49C925.219 219.003 925.566 219.611 925.802 220.312C926.038 221.007 926.156 221.767 926.156 222.594V222.812C926.156 223.632 926.038 224.392 925.802 225.094C925.566 225.788 925.219 226.396 924.76 226.917C924.302 227.431 923.736 227.83 923.063 228.115C922.389 228.399 921.611 228.542 920.729 228.542C919.847 228.542 919.066 228.399 918.385 228.115C917.705 227.83 917.135 227.431 916.677 226.917C916.219 226.396 915.872 225.788 915.635 225.094C915.399 224.392 915.281 223.632 915.281 222.812ZM918.792 222.594V222.812C918.792 223.236 918.823 223.632 918.885 224C918.948 224.368 919.052 224.691 919.198 224.969C919.344 225.24 919.542 225.451 919.792 225.604C920.042 225.757 920.354 225.833 920.729 225.833C921.097 225.833 921.403 225.757 921.646 225.604C921.896 225.451 922.094 225.24 922.24 224.969C922.385 224.691 922.49 224.368 922.552 224C922.615 223.632 922.646 223.236 922.646 222.812V222.594C922.646 222.184 922.615 221.799 922.552 221.437C922.49 221.069 922.385 220.747 922.24 220.469C922.094 220.184 921.896 219.962 921.646 219.802C921.396 219.642 921.083 219.562 920.708 219.562C920.34 219.562 920.031 219.642 919.781 219.802C919.538 219.962 919.344 220.184 919.198 220.469C919.052 220.747 918.948 221.069 918.885 221.437C918.823 221.799 918.792 222.184 918.792 222.594ZM932.813 228.333H929.448L929.469 225.521H932.813C933.507 225.521 934.094 225.354 934.573 225.021C935.059 224.687 935.427 224.191 935.677 223.531C935.934 222.865 936.063 222.045 936.063 221.073V220.417C936.063 219.687 935.99 219.049 935.844 218.5C935.705 217.944 935.497 217.483 935.219 217.115C934.941 216.74 934.594 216.458 934.177 216.271C933.767 216.083 933.295 215.99 932.76 215.99H929.385V213.167H932.76C933.788 213.167 934.729 213.344 935.583 213.698C936.444 214.045 937.188 214.545 937.813 215.198C938.444 215.844 938.931 216.611 939.271 217.5C939.618 218.382 939.792 219.361 939.792 220.437V221.073C939.792 222.142 939.618 223.122 939.271 224.01C938.931 224.899 938.448 225.667 937.823 226.312C937.198 226.958 936.458 227.458 935.604 227.812C934.757 228.16 933.826 228.333 932.813 228.333ZM931.542 213.167V228.333H927.885V213.167H931.542ZM947.885 221.885H943.979L943.958 219.49H947.125C947.694 219.49 948.149 219.427 948.49 219.302C948.83 219.17 949.076 218.979 949.229 218.729C949.389 218.479 949.469 218.167 949.469 217.792C949.469 217.361 949.389 217.014 949.229 216.75C949.069 216.486 948.816 216.295 948.469 216.177C948.128 216.052 947.688 215.99 947.146 215.99H945.354V228.333H941.698V213.167H947.146C948.083 213.167 948.92 213.253 949.656 213.427C950.392 213.594 951.017 213.851 951.531 214.198C952.052 214.545 952.448 214.983 952.719 215.51C952.99 216.031 953.125 216.646 953.125 217.354C953.125 217.972 952.993 218.552 952.729 219.094C952.465 219.635 952.024 220.076 951.406 220.417C950.795 220.75 949.958 220.924 948.896 220.937L947.885 221.885ZM947.74 228.333H943.094L944.344 225.521H947.74C948.24 225.521 948.639 225.444 948.938 225.292C949.243 225.132 949.462 224.924 949.594 224.667C949.733 224.403 949.802 224.111 949.802 223.792C949.802 223.403 949.736 223.066 949.604 222.781C949.479 222.497 949.278 222.278 949 222.125C948.722 221.965 948.351 221.885 947.885 221.885H944.813L944.833 219.49H948.51L949.365 220.448C950.378 220.406 951.181 220.549 951.771 220.875C952.368 221.201 952.795 221.632 953.052 222.167C953.309 222.701 953.438 223.26 953.438 223.844C953.438 224.837 953.222 225.667 952.792 226.333C952.368 227 951.733 227.5 950.885 227.833C950.038 228.167 948.99 228.333 947.74 228.333Z" fill="white"/>
</svg>
